<svg xmlns="http://www.w3.org/2000/svg" width="129.2" height="129.2" viewBox="0 0 129.2 129.2"><circle fill="#004D40" cx="62.7" cy="197.5" r="64"/><path fill="#00796B" d="M62.7 205.4v-54.8h-.4s-5.1.3-4.4 6.1c0 0 .1.4-.3.3-.5 0-.6 1.3.6 2.1 0 0 .3 1.5 1 2 0 0 .5 2.3-.4 3.5 0 0-.5 1.3-4.5 1.8 0 0-3.9 0-4.4 5.3l-.1 7.7s-.3 4.6-1.8 7c0 0-.9 1.6-1 5.2 0 0-.3 3.1-.6 4-.2.6-.9 1.5-1.5 2.2-1.1 1.4-3 4.3-2 4.6 0 0 .8.1 1.8-2 0 0 0 .8-.8 3.1-.2.4-.9 2.6.3 1.8 0 0 .5-.4 1.2-2.6 0 0-.4 3.8 0 3.9.5.3.8-.5 1-3.8 0 0 .2-1.1.4 3 0 .2.3 1.3.7.4.4-.7.2-2.7.2-3.4 0 0 .5 2.6.9 2.6 0 0 .5.6.3-2.6 0-.5.1-1.6.2-1.9v-1.2s-.1-1.4-.1-2c0-.1.5-2 1.8-4.1 0 0 2.7-4.9 2.6-8 0 0 0-3 1.1-4.7 0 0 .8 8.6.3 11 0 0-2.5 5.9-1.9 10.3.4 3.3 1.2 10.3 2 13.1.4 1.4.2 5.1.5 6 .1.4.1.8-.2 1.6-1.1 3.1-1 5.3 1.8 13.6 0 0 .9 1.8.4 5.1 0 0-1.8 3.7-.6 3.7 0 0 .1.2.5.1 0 0 .6.6 1.3.3 0 0 .6.5 1.1.1 0 0 .4.5 1 .1 0 0 .8.5 1.3 0 0 0 .9.2-.7-3.7 0 0-.6-4.1-.9-4.9-.6-1.5-.2-5.7 0-6.6.2-1.5.1-4-.3-6-.3-1.4.5-4.1.8-5.7.6-3.4 1.7-12.2 1.6-13.9l.2.3z"/><path fill="#00695C" d="M80.6 198c-.6-.7-1.3-1.7-1.5-2.2-.3-1-.6-4-.6-4-.1-3.6-1-5.2-1-5.2-1.5-2.4-1.8-7-1.8-7l-.1-7.7c-.5-5.3-4.4-5.3-4.4-5.3-3.9-.6-4.5-1.8-4.5-1.8-.8-1.2-.4-3.5-.4-3.5.7-.6 1-2 1-2 1.1-.9 1.1-2.2.6-2.1-.4 0-.3-.3-.3-.3.7-5.8-4.4-6.1-4.4-6.1h-.4v54.8c.3 0 .5-.2.5-.2-.1 1.7 1 10.4 1.6 13.9.3 1.6 1 4.3.8 5.7-.4 2-.5 4.5-.3 6 .1.9.6 5.1 0 6.6-.3.8-.9 4.9-.9 4.9-1.5 3.8-.7 3.7-.7 3.7.5.6 1.3 0 1.3 0 .6.4 1-.1 1-.1.5.4 1.1-.1 1.1-.1.7.3 1.3-.3 1.3-.3.4.2.5-.1.5-.1 1.1-.1-.6-3.7-.6-3.7-.4-3.3.4-5.1.4-5.1 2.8-8.3 2.9-10.4 1.8-13.6-.3-.9-.4-1.3-.2-1.6.3-.9.1-4.5.5-6 .8-2.8 1.6-9.8 2-13.1.5-4.4-1.9-10.3-1.9-10.3-.5-2.4.3-11 .3-11 1.1 1.7 1.1 4.7 1.1 4.7-.2 3.2 2.6 8 2.6 8 1.3 2 1.8 3.9 1.8 4.1 0 .6-.1 2-.1 2l.1 1.2c0 .3.2 1.4.2 1.9-.2 3.2.3 2.6.3 2.6.4 0 .9-2.6.9-2.6 0 .7-.2 2.6.2 3.4.4.9.7-.2.7-.4.1-4.1.4-3 .4-3 .2 3.3.5 4 1.1 3.8.4-.2 0-3.9 0-3.9.7 2.2 1.2 2.6 1.2 2.6 1.1.8.4-1.4.3-1.8-.8-2.3-.9-3.1-.9-3.1 1 2 1.8 2 1.8 2 .6-.4-1.3-3.3-2.4-4.7z"/><g fill="#00695C"><path opacity=".5" d="M66.4 152.2c.8.9 1.3 2.3 1.1 4.4 0 0-.1.4.3.3.5 0 .6 1.3-.6 2.1 0 0-.3 1.5-1 2 0 0-.5 2.3.4 3.5 0 0 .5 1.3 4.5 1.8 0 0 3.9 0 4.4 5.3l.1 7.7s.3 4.6 1.8 7c0 0 .9 1.6 1 5.2 0 0 .3 3.1.6 4 .2.6.9 1.5 1.5 2.2 1.1 1.4 3 4.3 2 4.6 0 0-.8.1-1.8-2 0 0 0 .8.9 3.1.2.4.8 2.6-.3 1.8 0 0-.5-.4-1.2-2.6 0 0 .4 3.8 0 3.9-.5.3-.8-.5-1.1-3.8 0 0-.2-1.1-.4 3 0 .2-.3 1.3-.7.4-.4-.7-.2-2.7-.2-3.4 0 0-.5 2.6-.9 2.6 0 0-.5.6-.3-2.6 0-.5-.1-1.6-.2-1.9l-.1-1.2s.1-1.4.1-2c0-.1-.5-2-1.8-4.1 0 0-2.7-4.9-2.6-8 0 0 0-3-1.1-4.7 0 0-.8 8.6-.3 11 0 0 2.5 5.9 1.9 10.3-.4 3.3-1.2 10.3-2 13.1-.4 1.4-.2 5.1-.5 6-.1.4-.1.7.2 1.6 1.1 3.1 1 5.3-1.8 13.6 0 0-.8 1.8-.4 5.1 0 0 1.8 3.7.6 3.7 0 0-.1.2-.5.1 0 0-.6.6-1.3.3 0 0-.6.5-1.1.1 0 0-.4.5-1 .1 0 0-.8.5-1.3 0 0 0-.9.2.7-3.7 0 0 .6-4.1.9-4.9.6-1.5.2-5.7 0-6.6-.2-1.5-.1-4 .3-6 .3-1.4-.5-4.1-.8-5.7-.6-3.4-1.7-12.2-1.6-13.9 0 0-.2.1-.5.2l-.5-.2c.1 1.7-1 10.4-1.6 13.9-.3 1.6-1 4.3-.8 5.7.4 2 .5 4.5.3 6-.1.9-.6 5.1 0 6.6.3.8.9 4.9.9 4.9 1.5 3.8.7 3.7.7 3.7-.5.6-1.3 0-1.3 0-.6.4-1-.1-1-.1-.5.4-1.1-.1-1.1-.1-.7.3-1.3-.3-1.3-.3-.2.1-.3.1-.4 0l15.2 15.2c26.5-3.8 47.8-23.9 53.4-49.8l-58.4-58.5zM52.8 202.4c-.5-4.4 1.9-10.3 1.9-10.3.5-2.4-.3-11-.3-11-1.1 1.7-1.1 4.7-1.1 4.7.2 3.2-2.6 8-2.6 8-1.3 2-1.8 3.9-1.8 4.1 0 .6.1 2 .1 2v1.2c0 .3-.2 1.4-.2 1.9.2 3.2-.3 2.6-.3 2.6-.4 0-.9-2.6-.9-2.6 0 .7.2 2.6-.2 3.4-.4.9-.7-.2-.7-.4-.1-4.1-.4-3-.4-3-.2 3.3-.5 4-1 3.8-.4-.2 0-3.9 0-3.9-.7 2.2-1.2 2.6-1.2 2.6-.3.2-.4.2-.5.1l11.3 11.3c0-.6-.1-1.1-.2-1.4-.8-2.8-1.5-9.8-1.9-13.1zM44.7 200.6c-1 2-1.8 2-1.8 2s-.1 0-.1-.1l1.1 1.1c.8-2.2.8-3 .8-3z"/></g><g fill="#1DE9B6"><path d="M89.7 178.7c-2.7 0-5 2.2-5 5 0 2.1 1.3 3.9 3.1 4.6l-8.6 24.7s-1.8 4.2-3 5.8c-1.5 1.9-3.5 4.3-5.7 5.2-3.8 1.6-13.1.9-15.9-1.9-2.6-2.6-4-4.9-4.3-6.9-.2-1.6-.4-6.8-.5-8.9 8-.8 10.9-5.7 11.1-6.1l6.5-24.9c0-.1 1.3-6-5.8-7.9-.2-.6-.8-1.1-1.5-1.1-.9 0-1.6.7-1.6 1.6v.5c0 .9.7 1.6 1.6 1.6.5 0 1-.3 1.3-.7 4.8 1.4 4.2 5.1 4.1 5.5l-6.4 24.7c-.4.7-3.1 4.5-10.3 4.9-7.6.4-10.4-6-10.5-6.1l-5.5-22.5s-.7-1.6.1-3.3c.6-1.4 2.1-2.4 4.2-3.2.3.4.7.6 1.2.6.9 0 1.6-.7 1.6-1.6v-.5c0-.9-.7-1.6-1.6-1.6-.7 0-1.4.5-1.5 1.2-2.9.9-4.8 2.4-5.7 4.3-1.1 2.4-.1 4.7-.1 4.7l5.5 22.5c0 .1 3.2 7.3 11.4 7.4.1 2.1.3 7.3.5 9 .3 2.5 1.9 5.1 4.8 8.1 2.2 2.2 7.2 3.3 11.6 3.3 2.5 0 4.8-.3 6.4-1 2.4-1 4.6-3.5 6.2-5.6 1.4-1.8 3.5-6.7 3.5-6.7l8.7-24.8c2.7 0 4.9-2.2 4.9-5 .2-2.7-2-4.9-4.8-4.9zm0 8.7c-2 0-3.7-1.7-3.7-3.7s1.7-3.7 3.7-3.7 3.7 1.7 3.7 3.7c.1 2-1.6 3.7-3.7 3.7z"/><circle cx="89.7" cy="183.7" r="2.2"/></g><path opacity=".5" fill="#00695C" d="M66.7 193.9l-3.2-3.2-2.2 8.7zM36.9 167.5c.2-.7.8-1.2 1.5-1.2.4 0 .8.2 1.1.5l-1.2-1.2-2.4 2.4c.4-.2.7-.4 1-.5z"/><g opacity=".5" fill="#009688"><path d="M59.2 199.6l2.7-10.5-7.5-7.5c.2 1.9.7 8.4.2 10.4 0 0-2.5 5.9-1.9 10.3 0 .4.1.9.2 1.4 4.2-1.1 6-3.6 6.3-4.1zM65.7 174.8c.1-.4.7-4.1-4.1-5.5-.3.4-.8.7-1.3.7l-.7-.1 5.8 5.8.3-.9zM53.4 185.8s0-2.7.9-4.4l-4.4-4.4v2.5s-.3 4.6-1.8 7c0 0-.9 1.6-1 5.2 0 0-.3 3.1-.6 4-.2.6-.9 1.5-1.5 2.2-1.1 1.4-3 4.3-2 4.6 0 0 .8.1 1.8-2 0 0 0 .8-.8 3 .3.1.7.3 1.1.4.1-.3.2-.7.4-1.1 0 0-.1.5-.1 1.2.3.1.7.2 1.1.2 0-.4.1-.8.1-1.3 0 0 .2-.7.3 1.3l1 .1v-1.5s.1.8.3 1.5h.9v-1.5c0-.5.1-1.6.2-1.9v-1.2s-.1-1.4-.1-2c0-.1.5-2 1.8-4.1-.2.3 2.5-4.6 2.4-7.8zM65.3 226.7c-.2 1.5-.2 3.1 0 4.1.1.6.3 2.9.2 4.7l2.7 2.7c.2-1 .4-1.6.4-1.6 2-5.8 2.6-8.6 2.4-10.8-1.4.6-3.5.9-5.7.9zM54.6 224.3v.2l5.7 5.7c.1-1.1.1-2.5-.1-3.9-2.2-.4-4.2-1-5.6-2zM45.3 206.9c.3.1.5 0 .6-.6-.3 0-.6-.1-.8-.2.1.4.1.7.2.8zM47.5 206.4c-.2-.1-.5-.1-.7-.1.1.4.4.8.7.1zM80.6 198c-.6-.7-1.3-1.7-1.5-2.2-.3-1-.6-4-.6-4-.1-3.6-1-5.2-1-5.2-1.5-2.4-1.8-7-1.8-7l-9.4-9.4c.2.3.4.5.5.8l.1.2.3.7v.1c.1.3.2.6.2.8v.1l.1.7v1.8000000000000003l-6.5 24.8s-.1.1-.1.3c-.1.1-.2.3-.3.5-.9 1.2-3.2 3.5-7.4 4.7.4 3.5 1 7.8 1.6 9.8.4 1.4.2 5.1.5 6 .1.3.1.5 0 1 1.1.8 2.7 1.5 4.6 1.9 0-1.5.6-3.7.8-5.1.6-3.4 1.7-12.2 1.6-13.9l.5.2c.3 0 .5-.2.5-.2-.1 1.7 1 10.4 1.6 13.9.3 1.6 1 4.2.8 5.7h.4c1.9-.1 3.5-.3 4.7-.8l-.2-.8c-.3-.9-.4-1.3-.2-1.6.3-.9.1-4.5.5-6 .8-2.8 1.6-9.8 2-13.1.5-4.4-1.9-10.3-1.9-10.3-.5-2.4.3-11 .3-11 1.1 1.7 1.1 4.7 1.1 4.7-.2 3.2 2.6 8 2.6 8 1.3 2 1.8 3.9 1.8 4.1 0 .6-.1 2-.1 2l.1 1.2c0 .3.2 1.4.2 1.9-.2 3.2.3 2.6.3 2.6.4 0 .9-2.6.9-2.6 0 .7-.2 2.6.2 3.4.4.9.7-.2.7-.4.1-4.1.4-3 .4-3 .2 3.3.5 4 1.1 3.8.4-.2 0-3.9 0-3.9.7 2.2 1.2 2.6 1.2 2.6 1.1.8.4-1.4.3-1.8-.8-2.3-.9-3.1-.9-3.1 1 2 1.8 2 1.8 2 .6-.6-1.3-3.5-2.4-4.9z"/></g><circle fill="#4A148A" cx="-65.8" cy="198.4" r="64"/><path fill="#6A1B98" d="M-20 172.4c-.9.1-12.5 1.5-15.1 1.3-2.6-.2-18.2-2.6-21.5-4.3-1.7-.8-6-2.8-10.6-4.6v73.9h.4c1.4-.1 4.8 0 4.8 0s1.5.2 1.4-1.4c-.1-1.6.2-18.8-.7-20.5-.9-1.7-.8-5.1-.6-5.7.3-.7 5.9-15.7 6.1-19.9 0 0 .3-1.2.8-1.2.1 0 .2.5.3 1.2.9 5.6-1.2 15.6-3.6 19.2-1.2 1.4-.2 3.4 1 3.4s14.8-3.7 24.8-16.7c10-12.9 14-18.3 14.6-20.7.7-2.3-1.1-4.1-2.1-4z"/><path fill="#7B1FA0" d="M-65.6 165.5c-4.7-1.8-11.2-4.1-13.9-4.2-5.3-.3-16 .9-19.9 3.4-3.9 2.4-9.1 8.1-10.7 11.7-1.6 3.7-2.3 5.1-3.2 9.6-.8 4.6 2.2 31.3 1.1 44.1-.2 2.5-1.5 5-1.3 6.3.2 1.3.3 1.5 1.2 1.9.8.4 4.7-1.8 4.7-1.8s17.2-8.2 20.9-8.7c3.7-.5 16.4-6.2 18.2-8l.4 18.2s0 .4.4.6c.4.2 1.1.1 2.1.1v-73.2z"/><ellipse transform="matrix(.707 -.707 .707 .707 -138.701 21.477)" opacity=".5" fill="#6A1B98" cx="-43.4" cy="178.2" rx="2.1" ry="2.5"/><path opacity=".5" fill="#6A1B98" d="M-87.6 185.6l-.2.2 1 1c-.3-.4-.6-.8-.8-1.2zM-79 179l-1-1-.2.2c.5.2.8.4 1.2.8zM-57.2 191.3l-.8-.8.8.8zM-67.5 177.7c-1-.3-1.9-.8-2.5-1.4l2.5 2.5v-1.1z"/><ellipse opacity=".5" fill="#6A1B98" cx="-65.8" cy="175.5" rx="2" ry="1.6"/><path opacity=".5" fill="#6A1B98" d="M-65.8 262.4c35.3 0 64-28.7 64-64 0-3-.2-5.9-.6-8.8l-15.7-15.7c.4.7.6 1.6.3 2.6-.6 2.3-4.6 7.8-14.6 20.7-10 12.9-23.6 16.7-24.8 16.7-1.2 0-2.2-2-1-3.4 2.3-3.7 4.5-13.6 3.6-19.2-.1-.7-.2-1.2-.3-1.2-.6 0-.8 1.2-.8 1.2-.2 4.2-5.8 19.3-6.1 19.9-.3.7-.4 4 .6 5.7.9 1.7.7 18.9.7 20.5.1 1.6-1.4 1.4-1.4 1.4s-3.4-.1-4.8 0h-.4c-1-.1-1-.7-1-.7l-.4-18.2c-1.7 1.7-14.4 7.5-18.2 8-3.7.5-20.9 8.7-20.9 8.7s-3.8 2.1-4.7 1.8c-.2-.1-.4-.2-.5-.3l16.9 16.9c9 4.7 19.3 7.4 30.1 7.4z"/><circle fill="#A800FF" cx="-65.8" cy="199.8" r="5.6"/><ellipse fill="#6A1B98" cx="-65.9" cy="226.1" rx="2.2" ry="1.8"/><ellipse transform="matrix(.707 -.707 .707 .707 -179.133 4.096)" fill="#6A1B98" cx="-84.6" cy="218.3" rx="1.8" ry="2.2"/><path fill="#6A1B98" d="M-65.9 230.7c-1 0-2-.2-2.8-.5l.2 8s0 .3.5.5c.1.1.4.1.6.1h5.7s1.6.2 1.5-1.2l-.1-9.6c-.8 1.6-3 2.7-5.6 2.7zM-58.1 212.8c.2.9.9 1.6 1.6 1.6.3 0 1.3-.2 2.8-.7l-2.3-2.3c-.6.5-1.4 1-2.1 1.4z"/><g fill="#A800FF"><path d="M-38.9 193c-2.4 0-4.4 1.8-5.1 4.4h-6.3c-.3-2.9-1.4-5.5-3.1-7.7l4.3-4.3c2.2 1.3 5 1.2 6.7-.5 2.1-2.1 1.8-5.6-.5-8-2.3-2.3-5.9-2.6-8-.5-1.7 1.7-1.8 4.4-.5 6.7l-4.2 4.2c-2.4-2-5.3-3.4-8.6-3.7v-5.8c2.5-.6 4.4-2.7 4.4-5.1 0-2.9-2.7-5.3-6-5.3s-6 2.4-6 5.3c0 2.4 1.8 4.4 4.4 5.1v5.8c-3.1.3-6 1.6-8.3 3.5l-4-4c1.3-2.2 1.2-5-.5-6.7-2.1-2.1-5.6-1.8-8 .5-2.3 2.3-2.6 5.9-.5 8 1.7 1.7 4.4 1.8 6.7.5l4 4c-1.8 2.3-3 5-3.3 8h-5.8c-.6-2.5-2.7-4.4-5.1-4.4-2.9 0-5.3 2.7-5.3 6s2.4 6 5.3 6c2.4 0 4.4-1.8 5.1-4.4h5.8c.3 3.3 1.6 6.2 3.6 8.6l-4.3 4.3c-2.2-1.3-5-1.2-6.7.5-2.1 2.1-1.8 5.6.5 8 2.3 2.3 5.9 2.6 8 .5 1.7-1.7 1.8-4.4.5-6.7l4.3-4.3c2.3 1.8 5 2.9 8 3.2v6.3c-2.5.6-4.4 2.7-4.4 5.1 0 2.9 2.7 5.3 6 5.3s6-2.4 6-5.3c0-2.4-1.8-4.4-4.4-5.1v-6.3c3.1-.3 5.9-1.5 8.2-3.4l4.5 4.5c-1.3 2.2-1.2 5 .5 6.7 2.1 2.1 5.6 1.8 8-.5 2.3-2.3 2.6-5.9.5-8-1.7-1.7-4.4-1.8-6.7-.5l-4.5-4.5c1.9-2.3 3.1-5.2 3.4-8.4h6.3c.6 2.5 2.7 4.4 5.1 4.4 2.9 0 5.3-2.7 5.3-6s-2.4-6-5.3-6zm-9.2-13.9c.7-.7 2-.6 2.8.2.8.8 1 2.1.2 2.8-.7.7-2 .6-2.8-.2-.8-.9-1-2.1-.2-2.8zm-35 40.7c-.7.7-2 .6-2.8-.2-.8-.8-1-2.1-.2-2.8.7-.7 2-.6 2.8.2.8.8.9 2.1.2 2.8zm35.1-2.8c.8-.8 2.1-1 2.8-.2.7.7.6 2-.2 2.8-.8.8-2.1 1-2.8.2-.7-.7-.6-1.9.2-2.8zm-20-44.4c0-1 1-1.8 2.2-1.8 1.2 0 2.2.8 2.2 1.8s-1 1.8-2.2 1.8c-1.2 0-2.2-.8-2.2-1.8zm4.3 53.5c0 1-1 1.8-2.2 1.8-1.2 0-2.2-.8-2.2-1.8s1-1.8 2.2-1.8c1.2 0 2.2.8 2.2 1.8zm-2.1-13.8c-7.3 0-13.2-5.9-13.2-13.2 0-7.3 5.9-13.2 13.2-13.2 7.3 0 13.2 5.9 13.2 13.2-.1 7.3-6 13.2-13.2 13.2z"/><circle cx="-65.8" cy="199.1" r="6.1"/></g><g opacity=".5" fill="#6A1B98"><path d="M-57.8 188.7l-.2-.2c-.9-.7-2-1.3-3.1-1.7-.1 0-.2-.1-.2-.1-.6-.2-1.1-.4-1.7-.5-.9-.2-1.8-.3-2.8-.3-7.3 0-13.2 5.9-13.2 13.2 0 7.3 5.9 13.2 13.2 13.2 7.3 0 13.2-5.9 13.2-13.2-.1-4.2-2.1-8-5.2-10.4zm-8 16.6c-3.4 0-6.1-2.8-6.1-6.1 0-3.4 2.8-6.1 6.1-6.1 3.4 0 6.1 2.8 6.1 6.1s-2.7 6.1-6.1 6.1zM-82.2 213.5l4.3-4.3c-2-2.4-3.3-5.3-3.6-8.6h-5.8c-.6 2.5-2.7 4.4-5.1 4.4-1.2 0-2.3-.5-3.2-1.2l9 9c1.4-.3 3-.1 4.4.7z"/><ellipse transform="matrix(.707 -.707 .707 .707 -141.358 19.926)" cx="-46.6" cy="180.6" rx="1.8" ry="2.2"/><path d="M-78.2 189.3l-4-4c-2.2 1.3-5 1.2-6.7-.5l8.4 8.4c.6-1.4 1.4-2.7 2.3-3.9zM-79.8 183l4 4c1.2-1 2.4-1.7 3.8-2.3l-8.3-8.3c1.7 1.6 1.8 4.4.5 6.6z"/><ellipse cx="-65.8" cy="172.6" rx="2.2" ry="1.8"/><path d="M-64.2 177.6v5.8c3.3.3 6.2 1.7 8.6 3.7l4.2-4.2c-.8-1.4-1.1-3-.7-4.4l-8.5-8.5c.5.8.8 1.6.8 2.6 0 2.4-1.9 4.4-4.4 5zM-61.8 214.3c-.8.2-1.6.4-2.4.5v6.3c.5.1 1 .3 1.4.6l.2.1c.9.5 1.7 1.3 2.1 2.1 0 0 0 .1.1.1 0 0 0 .1.1.1-.1-3.1-.3-5.7-.6-6.3-.6-.9-.8-2.3-.9-3.5zM-43.9 200.7h-6.3c-.3 3.2-1.5 6-3.4 8.4l2.7 2.7c3.1-1.4 7-3.6 11-6.8-2-.6-3.5-2.2-4-4.3zM-41.8 178.4l.4.8c.3.8.4 1.6.4 2.4v.2l-.1.5-.1.5-.1.4c-.1.2-.2.4-.3.5l-.2.3-.6.8c-1.7 1.7-4.4 1.8-6.7.5l-4.3 4.3c1.7 2.2 2.8 4.8 3.1 7.7h6.3c.6-2.5 2.7-4.4 5.1-4.4.4 0 .7 0 1.1.1h.1l.9.3c1.2.6 2.2 1.8 2.8 3.2v.2c.2.5.3 1.1.3 1.8l1.2-1.5c1.5-1.9 2.9-3.7 4.1-5.3l-13.4-13.3zM-79.9 215.9c1.3 2.2 1.2 5-.5 6.7-2.1 2.1-5.6 1.8-8-.5l4.9 4.9c5.2-1.8 13.5-5.7 14.9-7.1v1.6c.3-.1.6-.3 1-.4v-6.3c-3-.3-5.7-1.5-8-3.2l-4.3 4.3z"/></g><circle fill="#850E4F" cx="-194.3" cy="196.5" r="64"/><path opacity=".5" fill="#438E10" d="M-196.5 215.9z"/><path fill="#C0185B" d="M-194.2 148.6c-7.6.1-15.5 2.2-21.6 6.9-8.4 6.5-9.6 16.3-9.7 26.2-.1 4.4 1.3 8.6 2.8 12.7 1.1 3.1 2.5 7.2 4.9 9.6 2.4 2.3 2.7 5.4 2.8 8.5.1 3.5-.3 7.1-1.4 10.4-1.2 3.5-3.4 6.7-6.1 9.2-1.4 1.2-2.9 2.3-4.5 3.2-.8.4-5.7 2.5-5.4 3.6.4 1.3 1.9 1.8 3.2 2.1 11.5 2.5 23.3 3.5 35.1 3.4v-95.8z"/><path fill="#AB1457" d="M-152.6 195.2c-.1-.9-2.1-3.7-3.5-5-1.3-1.3-4.4-3.5-5.2-5.2-.8-1.7-1.5-2.4-1.3-4.3.3-1.9 1.6-5.5 1.6-7.1 0-5-1.7-11-4.6-15.1-2.4-3.4-6.3-5.3-10.1-6.8-2.7-1-5.5-2-8.3-2.7-2.5-.6-5.4-.5-8-.6h-2.4v95.7c5-.1 9.9-.3 14.8-.7h.3c5.1-.4 10.2-.9 15-2.7 1.1-.4 2.3-1 2.3-2.2 0-.7-.5-1.3-1-1.7 0 0-.1 0-.1-.1-.6-.4-1.4-.5-2.1-.6-3.7-.7-7-2.5-10.4-4.2-2.4-1.2-5.7-3.3-5.1-6.5.1-.4.3-.8.6-1.1.5-.5 1.2-.6 1.9-.6 2.9-.2 5.9-.5 8.7-.6 2.4-.1 4.9 0 7.2-1 1.1-.4 2-1.1 2.6-2.1.6-1 .6-2.3 0-3.2l-1.1-1.2c-.7-.9-.8-2.3-.2-3.3.5-.9 2.2-1.1 2.2-2.2 0-.7-.8-.9-.9-1.3-.1-.4-.1-1.8.4-1.9.5-.1.8-1.3.8-1.7 0-.9-.7-1.1-1.2-1.8l-.3-.5c-.2-.6-.1-1.2.1-1.7.5-2.3 2.1-2.1 4.1-2.4.6-.1 1.2-.2 1.8-.5 1.3-.4 1.6-2 1.4-3.1z"/><path opacity=".5" fill="#7C064A" d="M-152.6 195.2c-.1-.9-2.1-3.7-3.5-5-1.3-1.3-4.4-3.5-5.2-5.2-.8-1.7-1.5-2.4-1.3-4.3.3-1.9 1.6-5.5 1.6-7.1 0-1.9-.3-4-.7-6.1l-5.8-5.8c-1.7-1.9-3.8-4.1-5.7-5.7l-1.7-1.7-.2.2c-.1-.1-.2-.2-.4-.3-4.2-3-12.5-4.1-18.3-4.1-5.5 0-13.4 3.4-16.3 5-.7.4-1.5 1-2.5 1.7 0 0-.1 0-.1.1-3 2.4-6.8 6.5-9.3 11.7-3.5 7.3-2.8 17.1-2.5 18.3.4 1.4 2.6 4.9 4.1 6.5.6.7 3.3 3.1 3.3 3.1l11.7 11.7c.1.4.3.9.6 1.2.3.3.6.4 1 .4l32.7 32.7c2.3-.4 4.6-.9 6.9-1.7 1.1-.4 2.3-1 2.3-2.2 0-.7-.5-1.3-1-1.7 0 0-.1 0-.1-.1-.6-.4-1.4-.5-2.1-.6-3.7-.7-7-2.5-10.4-4.2-2.4-1.2-5.7-3.3-5.1-6.5.1-.4.3-.8.6-1.1.5-.5 1.2-.6 1.9-.6 2.9-.2 5.9-.5 8.7-.6 2.4-.1 4.9 0 7.2-1 1.1-.4 2-1.1 2.6-2.1.6-1 .6-2.3 0-3.2l-1.1-1.2c-.7-.9-.8-2.3-.2-3.3.5-.9 2.2-1.1 2.2-2.2 0-.7-.8-.9-.9-1.3-.1-.4-.1-1.8.4-1.9.5-.1.8-1.3.8-1.7 0-.9-.7-1.1-1.2-1.8l-.3-.5c-.2-.6-.1-1.2.1-1.7.5-2.3 2.1-2.1 4.1-2.4.6-.1 1.2-.2 1.8-.5 1.2-.5 1.5-2.1 1.3-3.2z"/><path fill="#7C064A" d="M-169.3 154l.3.3-.3-.3z"/><g fill="#F30057"><path d="M-224.3 187c.4 1.4 2.6 4.9 4.1 6.5.6.7 1.4 1 2.3 1l.9-.1c.1.4.4 1 .8 1.7 2 2.4 5 3.5 8.6 3.5 1.9 0 3.5-.3 4.4-.5-1.2 1.8-2 6.6-2.1 7.2 0 .6 0 2.3.8 3.1.3.3.6.4 1 .4h.1c1.5-.1 2.4-1.9 2.5-2.1.4-3 2.3-6.9 4.4-8.3 2.7-1.7 3.1-3.8 3.4-5.7.1-.6.3-.9.4-1 1.3.6 3.4.9 6.1.9h.7999999999999999c1.5 0 2.6-.1 2.6-.1h.3c4.6 0 8.3-7.8 8.3-9.8 0-.8.3-1.4.5-1.8h.2c4.5 0 8.2-6.6 8.6-7.7.3-1 1.2-2.4 1.5-2.9.6-.8.8-3.1.1-5.1-.7-2.2-7.2-9.2-11.3-12.1-4.2-3-12.5-4.1-18.3-4.1-5.5 0-13.4 3.4-16.3 5-.7.4-1.5 1-2.5 1.7 0 0-.1 0-.1.1-3 2.4-6.8 6.5-9.3 11.7-3.8 7.5-3.2 17.3-2.8 18.5zm15.1-30.3c.6-.3 1.4-.7 2.3-1.1.2-.1.4.2.4.2s1.6 1 2.5 1.6c.1.1.1.3.1.4 0 .4 0 1.1.2 2 .6 2.3 3 2.7 4.4 2.5.4 0 2.6.8 4.8 1.7-.5.5-1 1-1.2 1.4-.5 1-.3 4.2.4 6.2 0 0 0 .1.1.1-.3.2-.6.4-.8.8-.8-.6-2-1.2-2.7-1.5-1-.4-3.6-.6-4.8.4-.9.7-2.3 1.5-3.5 1.9-.6.2-1.2-.7-1.2-.7-.2-.4-.7-.5-1.1-.3-.4.2-.5.7-.3 1.1.3.6 1.2 1.5 2.4 1.5.3 0 .5 0 .8-.1 1.4-.5 3-1.4 4-2.2.6-.5 2.5-.5 3.1-.2.8.4 2.4 1.2 2.8 1.6.1.1-.1.8-.1.9v1l.2 2c0 .2 0 .4-.1.5l-.3.2c-.8.3-2 .1-2.9.1h-3c-1.2-.1-3.5-.9-4.4-1.3-.7-.3-3.5-3.8-3.9-4.8-.3-.7-.3-1.9-.3-2.6v-.3c0-.7-.1-1.4-.3-2-.1-.7-.1-1.6-.4-2.3 0-.1-.1-.2-.2-.3-.2-.2-.4-.6-.4-.9 0-.2.1-.5.1-.8l2.6.5c1.4.3 3 .6 3.7.8.4.1.5.3.5.3-.2.4 0 .8.4 1 .1.1.2.1.3.1.3 0 .6-.2.8-.5 0-.1.3-.6 0-1.2-.2-.5-.7-.9-1.4-1.2-.8-.3-2.4-.6-3.9-.9l-1.5-.3c-.4-.1-.9-.1-1.3-.3l-.1-.1c-.5-.3-.6-.9-1.1-1.3h-.1c.7-.7 1.3-1.3 2-1.8.5.4 1.3 1 2.7 1.6.1.1.2.1.4.1.3 0 .6-.2.7-.5.2-.4 0-.9-.4-1.1-.8-.4-1.6-.9-2.1-1.2.2-.1.7-.5 1.1-.7zm-6.8 26.3c0 .1.1.1.2.2-1.3 2.3-1.6 4-1.7 4.9-.8.1-1.3-.2-1.6-1.1-.6-1.8 0-6.6.8-10 .3-1 .9-2.3 1.7-3.7.6.8 1.3 1.8 1.5 2.7.2.7 0 1-.3 1.3-.2.2-.4.5-.6.8-.4.7-.6 3.8 0 4.9zm17.7-.8c0 .3 0 1.1.2 2-1.3-.2-2.1-.3-2.1-.3-.9 0-6.9.7-11 2.2-1.4.5-2.4.9-3.2 1.2-.6.2-1.1.4-1.5.5.1-.8.5-2.1 1.4-3.7.5.1 1 .1 1.7.1 1.8 0 7.3-1.2 7.4-1.2 1.2-.3 7.2-2.2 7.5-2.3-.2.3-.4.8-.4 1.5zm-17.5-10.5c1-1.6 1.9-3 2.4-3.7.1.9.3 1.6.3 1.9v.3c0 .9 0 2.3.5 3.3s3.5 5 4.7 5.6c.9.4 3.2 1.2 4.7 1.4-1.1.4-2.1.6-2.5.7-1.7.4-5.7 1.2-7 1.2-1 0-1.5 0-1.7-.1-.1 0-.1-.1-.2-.2-.2-.5-.2-3 .1-3.5l.2-.3c.4-.5 1.2-1.2.7-2.9-.4-1.3-1.5-2.9-2.2-3.7zm21.8 1.2c1.1.7 2.7.9 3.9 1-.5 1-.8 2.1-.9 2.8-.4.1-.9.3-1.3.5-1 .3-1.8.6-2.5.9-.8-3.6.1-5 .8-5.2zm.3-21c3.4 0 7.7.4 11.4 1.3-.1.9-.2 3.8.5 5.2.8 1.5 4.9 3.5 5.7 3.9.1.1.2.1.3.1.1 0 0 1.6 0 2.4-.1 0-.2-.1-.4-.1-2.6-.2-3-.9-3-.9 0-.4-.3-.8-.8-.7-.5 0-.8.5-.8.9 0 .5.4 2 4.4 2.3 3 .3 7.1 3.6 7.7 4.4 0 .4 0 .4-.1.5 0 0-.2.1-.7 0-2-.3-5.4-1.6-5.9-2.6-.1-.3-.4-.5-.7-.5-4.2 0-8.8-.2-9.5-.4-.1 0-.2-.1-.4-.2-.7-.3-1.1-.5-1-.6l.3-.9c.3-.8.7-1.8.4-2.8 1.1-.9 1.6-2.4 1.8-3 .5-1.5.5-3.8-1.1-5.8-1.6-2.1-7.1-1.4-8.1-1.2-.4.1-.7.5-.7.9.1.4.5.7.9.7 2.3-.4 5.8-.4 6.6.6 1.2 1.6 1.1 3.4.8 4.2-.5 1.6-1.2 2.9-2.9 2.8-2.1-.2-3.1-1.7-3.1-1.7-.1-.2-2.3-3.2-4.3-4.5-1.4-.9-3.6-2.4-4.5-3.1 2.8-.7 5.2-1.2 7.2-1.2zm25.2 11.2c-1-.6-1.9-1.1-2.4-1.2l-.4-.1c-1.7-.4-3.7-.8-4-.9-2.1-1-4.6-2.5-5-3.2-.4-.7-.4-2.6-.3-3.9 1.7.5 3.2 1.2 4.3 2 2.5 1.7 5.6 4.7 7.8 7.3zm-15.1 29c-.1 0-.9.1-2.1.1.3-1.1.5-2.6 0-3.9-.5-1.1-3-2-5.9-2.7.6-.4 1.2-.8 1.8-1.3.5-.4 1.2-.9 1.3-.9.4-.2 2.3-.6 3.1-.1 1 .5 2.2 2.1 2.2 2.6s.3.8.7.9c.5 0 .8-.3.9-.8.1-1.3-1.8-3.5-3.1-4.1-1.5-.8-3.9-.2-4.6.1-.3.1-.8.5-1.6 1.1-.9.6-2 1.4-2.6 1.8-.2.1-.5.2-.7.2-.7-.2-1.4-.3-2.1-.4-.2-.3-.5-1.2-.5-2.3 0-.7.5-1.4.8-1.9l.2-.3c.3-.2 2.5-.9 3.8-1.4 1-.3 1.8-.6 2.4-.8 1-.4 4.7-.8 7-1 .3.2 1 .4 2.2.8 1.1.4 2.4 2.2 2.8 2.9.2.4.7.5 1.1.3.4-.2.5-.7.3-1.1-.2-.3-1.8-3-3.7-3.6-.9-.3-1.5-.5-1.8-.7.7-1.2 1.4-2.2 2-2.7 1.1 0 2.2 0 3.2.2 4.5.7 5.4 3.3 5.5 3.4.1.3.4.6.8.6h.3c.4-.1.7-.6.5-1 0-.1-1.2-3.6-6.8-4.5-2-.3-4.1-.2-6.1 0-1.7.2-3.4.4-5.1.8-.5.1-1.1.2-1.6.4-1.7.1-4.4-.4-4.8-1.3-.7-1.8-.7-4.4-.5-4.8.2-.3 1-1.2 1.8-1.8.2-.2.3-.5.3-.8 0-.3-.2-.5-.5-.6-3.9-1.6-6.1-2.4-6.8-2.3-.2 0-2.3.2-2.7-1.3-.2-.7-.2-1.2-.2-1.6 0-.6 0-1.3-.9-1.9l-1.8-1.1.7-.3.8-.3c.4-.2 1-.5 1.4-.2 1.8 1.2 3.5 2.6 5.4 3.7 1.7 1.1 3.8 4 3.8 4 0 .1 1.4 2.1 4.3 2.5h.5c.3 0 .5 0 .8-.1 0 .4-.2.9-.4 1.4-.2.4-.3.8-.4 1.2-.4 1.6 1.2 2.3 2 2.6l.4.2c.7.3 5.5.4 9.6.5 1.4 1.8 5.4 2.8 6.9 3.1h.6c.6 0 1.1-.2 1.5-.5.5-.5.6-1.1.5-2-.1-.9-3.8-3.9-7.1-5.1 0-.1 0-.1-.1-.2-.1-.3-.1-1.5 0-2.1.6 0 1.7.3 2.2.4l.5.1c.5.1 2.7 1.5 4.6 2.7.1.1 1 .6 1 .8.6 1.7.3 3.4.1 3.6-.2.4-1.3 2.1-1.8 3.4-.2.8-3.6 6.6-7.2 6.6-.6 0-1.1.3-1.4.8-.3.5-.7 1.4-.7 2.6 0 1.4-3.3 8.1-6.6 8.1-.1-.7-.4-.7-.4-.7zm-4.6-18.3c1-.2 3.6-.8 6.4-1-.6.8-1.1 1.7-1.6 2.4-1.5.1-4.2.4-5.8.8.2-.8.6-1.6 1-2.2zm-8.7 16.8l-4-.3c-1.5-.1-3.1-.2-4.6-.2h-.2c-.2-1.3-.8-2.7-1.2-3.6 3.1-.7 6.2-1 6.7-1 .4 0 12.5 2.7 13 3.4.4.9.1 2.4-.2 3.2-1.4-.1-2.9-.1-4.2-.5-.4-.1-5-.9-5.3-1zm-5.1 9.6c.3-.4.3-.8.2-1.3 1.5-.7 4.5-2.1 6.5-3.4-.3 1-.9 1.9-2.2 2.7-2.6 1.6-4.7 6.1-5 9-.2.4-.7 1.1-1 1.1-.1-.2-.3-.9-.3-1.6.3-2.4 1.1-5.5 1.8-6.5zm-13.6-6.2c1-.5 2.5-1.2 3.5-1.5 1.1-.4 3.1-.7 6-.7h.5c2.7 0 9.5.6 9.5.6.5.1 1.2.5 1.3.6-.5.8-4.7 3-8.2 4.7 0 0 0 .1-.1.1l-.3-.1h-.4c-.7.2-2.2.5-4 .5-3.2 0-5.7-1-7.2-2.6-.3-.8-.5-1.3-.6-1.6zm-4.8-24.6c.4-.8.8-1.6 1.3-2.3.9-1.6 2-3.1 3.2-4.5.2-.2.5-.8.8-.8.2 0 .4.3.5.5.2.5.2 1 .3 1.5.1 1 0 1.9-.2 2.9-.7 1-4.7 6.9-5.5 9.9-.8 3.1-1.6 8.6-.8 10.9.6 1.8 1.9 2.5 4 2.1.6-.1 1.3-.4 2.9-.9.8-.3 1.8-.7 3.2-1.2.6-.2 1.4-.4 2.1-.6.4.8.9 2.1 1.1 3.2-2.5.1-4.2.3-5.4.8-1.5.6-4.5 1.9-4.5 1.9-.1.1-.2.1-.3.1l-.5.1c-.4 0-.7-.2-1.1-.5-1.5-1.7-3.4-4.9-3.7-5.9-.1-1-.5-10.6 2.6-17.2zM-203.6 169.5s.1-.1.1-.5c.2-4.1 1.3-4.7 1.7-4.9 1-.5 3.2-.7 3.7-.7s.8.3.9.8c0 .5-.3.8-.8.9-.9.1-2.5.2-3 .5-.2.1-.7.9-.8 3.5 0 .8-.3 1.4-.8 1.7-.3.2-.6.3-.9.3-.2 0-.3 0-.4-.1-.4-.1-.7-.6-.6-1 .1-.4.5-.6.9-.5z"/></g><path opacity=".5" fill="#7C064A" d="M-130.4 193.6l-35.7-35.7.6.8c2.9 4.1 4.6 10.1 4.6 15.1 0 1.5-1.3 5.2-1.6 7.1-.3 1.9.5 2.6 1.3 4.3.8 1.7 3.8 3.9 5.2 5.2 1.3 1.3 3.4 4.1 3.5 5 .2 1.1-.1 2.7-1.2 3.3-.5.3-1.2.4-1.8.5-1.9.3-3.6.2-4.1 2.4-.1.6-.2 1.2-.1 1.7.1.2.2.4.3.5.5.7 1.1.9 1.2 1.8 0 .4-.3 1.6-.8 1.7-.5.1-.5 1.5-.4 1.9.1.4.9.7.9 1.3 0 1.1-1.7 1.3-2.2 2.2-.6 1-.5 2.4.2 3.3l1.1 1.2c.7.9.6 2.3 0 3.2-.6 1-1.6 1.7-2.6 2.1-2.3.9-4.8.9-7.2 1-2.9.1-5.9.3-8.7.6-.7.1-1.4.2-1.9.6-.3.3-.5.7-.6 1.1-.7 3.1 2.7 5.2 5.1 6.5 3.3 1.7 6.6 3.5 10.4 4.2.7.1 1.5.3 2.1.6 0 0 .1 0 .1.1.6.4 1.1 1 1 1.7 0 1.1-1.2 1.8-2.3 2.2-4.8 1.7-9.9 2.3-15 2.7h-.3c-4.9.4-9.9.6-14.8.7-11.8.1-23.6-.8-35.1-3.4-1-.2-2.1-.6-2.7-1.3l17.6 17.6c6.3 2.1 13.1 3.2 20.1 3.2 35.3 0 64-28.7 64-64-.1-1.1-.1-2-.2-3z"/><circle fill="#B71C1C" cx="-322.3" cy="199" r="64"/><path opacity=".5" fill="#438E10" d="M-324.5 218.4zM-328.5 222.4l-.1-.1s0 .1.1.1zM-328.6 222.2z"/><path fill="#F44336" d="M-322.2 246.7c3.4 0 20-17.9 32.3-30.2 8.5-8.5 14.7-19.5 15.6-29.9.6-6.9-.2-13.1-.6-15.1-.7-4-6.2-15.9-21.9-18.7l-25.4 12.7v81.2z"/><path fill="#EF5350" d="M-322.2 246.7c-3.4 0-20-17.9-32.3-30.2-8.5-8.5-14.7-19.5-15.6-29.9-.6-6.9.2-13.1.6-15.1.7-4 6.2-15.9 21.9-18.7l25.4 12.7v81.2z"/><path opacity=".5" fill="#7A0B0B" d="M-319.9 199.9l1.1 1-.9-1.2z"/><g opacity=".5" fill="#7A0B0B"><path d="M-358.1 212.6l-.3.3 18.9 18.9c-5-5-10.3-10.6-15-15.3l-3.6-3.9zM-260.9 181l-19.2-19.2c3.3 3.8 4.8 7.6 5.2 9.6.4 2 1.2 8.2.6 15.1-.9 10.4-7 21.4-15.6 29.9-12.4 12.4-29 30.2-32.3 30.2-1.8 0-7.3-5-13.8-11.5l26.5 26.5c29.2-5.9 51.2-31.8 51.2-62.7 0-6.1-.9-12.2-2.6-17.9z"/></g><path fill="#DA1919" d="M-290.1 199.8v-2.1h-29.2l-6.1-8.2-6.5 11.6-6.2-21.9-6.2 18.5h-9.9v2.1h11.4l4.5-13.5 5.8 20.3 7.3-13.2 4.8 6.4h30.3z"/><g fill="#7A0B0B"><path opacity=".5" d="M-326.2 191l-11.8-11.8 6.2 21.9zM-290.1 197.7v2.1h-30.2l-4.8-6.4-7.3 13.2-5.8-20.3-4.5 13.5h-11.3l40.5 40.5c6.8-6.3 16.1-16.1 23.7-23.8 3.1-3.1 5.9-6.6 8.3-10.2l-8.6-8.6z"/></g><circle fill="#1B5E20" cx="266" cy="121.2" r="64"/><path fill="#50AF10" d="M295.6 94.5s-.9 1.1-1.3 2.4c-.4 1.3-4.3 18.8-4.3 18.8s-.8 3.4-1.5 3.3c-.7-.1-1-2.2-1-3.6 0-1.2.5-22 .6-29 0-1.4-.1-3-.6-3.9-.5-1.1-1.4-2.3-2.8-2.4-1.6-.1-2.9.3-3.8 1-.4.4-1 2.2-1.1 3.1-.8 6.6-2.7 29-2.7 29s-.8 3-1.5 3c-.4 0-.8-.5-1.2-1.1-.4-.7-.7-1.6-.7-2.1 0-.9-1.1-26.1-1.5-34.3-.1-1.6-.5-3.2-1.3-3.9-.9-.9-2.2-1.9-3.9-1.9-.4 0-.8.1-1.1.1v96h22.1s1.7.1 1.9-1.4l1.1-8.8s5.1-11.1 6.2-20.5c1.1-9.4 3.8-37.1 3.8-37.1s.6-5.5-.8-7c-1.2-1.2-4.6.3-4.6.3z"/><path fill="#64DA17" d="M266 73.3c-1.2.3-2.1.9-2.7 1.4-.6.5-.9 3.7-.9 3.7v34.8s-.2 3.1-.8 3.3c-.7.2-2.4-1.9-2.5-3.7-.2-1.4-1.9-18.5-2.6-25.1-.2-1.6-.8-3.2-1.6-3.9-.8-.7-2-1.3-3-1.2-1.4.1-2.6.8-3.3 1.6-.3.3-.6 2.2-.5 3.8.6 10.1 3.2 43.9 3.2 43.9s.5 3.2-.3 3.4c-1.3.3-3-3.1-3-3.1s-2.1-4-3.7-6.9c-.8-1.5-3.3-4.3-4.7-5.2-1.3-.8-2.7-1.4-3.6-1.4-2 0-4 1-4.6 1.6-.7.6-.7 2 0 3.5s12 21.5 13.4 23.1c1.4 1.6 10.2 10.3 11.4 10.9 1.2.7 2.6 2.4 2.6 3.4l.4 6.4s.8 1.4 1.5 1.4h5.4v-95.7z"/><g fill="#76FF03"><path d="M290.1 131.1l.1-.5c0-1.5-1.2-2.8-2.8-2.8-.9 0-1.6.4-2.1 1.1-.2-.1-.4-.1-.6-.1-.4 0-.7.1-1 .2-.2-1-.9-1.8-1.8-2.1v-.2c0-1.5-1.2-2.8-2.8-2.8s-2.8 1.2-2.8 2.8c0 1.2.8 2.2 1.9 2.6-.7.5-1.2 1.3-1.2 2.2 0 1.3.9 2.3 2.1 2.7v.1c0 1.5 1.2 2.8 2.8 2.8 0 .2.1.4.1.5-1.2.3-2.2 1.3-2.2 2.7 0 .6.2 1.2.6 1.6-.2.3-.3.7-.3 1.1 0 1.5 1.2 2.8 2.8 2.8 1.5 0 2.8-1.2 2.8-2.8 0-.6-.2-1.2-.6-1.6.2-.3.3-.7.3-1.1 0-.2-.1-.4-.1-.5 1.2-.3 2.2-1.3 2.2-2.7l-.1-.6.6-.6c.5.4 1.1.7 1.8.7 1.5 0 2.8-1.2 2.8-2.8-.2-1.4-1.2-2.5-2.5-2.7zM276.3 142c.6-.7.8-1.7.5-2.6-.1-.3-.3-.6-.5-.8.9-.5 1.5-1.4 1.5-2.4 0-1.5-1.2-2.8-2.8-2.8-.1 0-.2 0-.3.1-.5-.9-1.4-1.5-2.4-1.5-1.1 0-2 .6-2.4 1.5-.1 0-.2-.1-.4-.1-.5 0-1 .2-1.4.5-.4-.3-.9-.5-1.4-.5-.4 0-.9.1-1.2.3-.3-.4-.6-.8-1.1-1.1.6-.5.9-1.2.9-2 0-1.5-1.2-2.8-2.8-2.8-1.3 0-2.3.9-2.6 2.1-.8.5-1.4 1.3-1.4 2.3 0 .3.1.5.2.7h-.2c-1.5 0-2.8 1.2-2.8 2.8 0 .5.2.9.4 1.3-1 0-1.9.6-2.4 1.5-1.1 0-2.1.7-2.5 1.7-.9.5-1.5 1.4-1.5 2.4 0 1.5 1.2 2.8 2.8 2.8 1.1 0 2.1-.7 2.5-1.7.4-.2.7-.5 1-.9.4.9 1.2 1.4 2.2 1.6.4 1 1.4 1.8 2.6 1.8.8 0 1.5-.3 2-.8.4 1.1 1.4 2 2.6 2l.6-.1c.2.3.5.5.8.7l-.1.4c0 1.5 1.2 2.8 2.8 2.8.7 0 1.3-.3 1.8-.7.5.7 1.3 1.1 2.2 1.1 1.5 0 2.8-1.2 2.8-2.8 0-.6-.2-1-.5-1.5 1.2-.3 2.2-1.3 2.2-2.7-.1-1.2-.8-2.1-1.7-2.6zm-13 .6v-.2.2zm3.8-3.7zm-3.9 3.4z"/></g><path opacity=".5" fill="#438E10" d="M263.8 140.7zM259.8 144.6l-.1-.1c0 .1 0 .1.1.1zM259.6 144.4zM280 123.9l-.2.2c.2.1.4.1.6.3l-.4-.5z"/><g fill="#438E10"><path opacity=".5" d="M281.4 137.9c.2-.1.3-.2.5-.2l-.1-.5c-.7 0-1.3-.2-1.8-.6l1.4 1.3zM281.8 126.9c.9.3 1.6 1.1 1.8 2.1.3-.1.7-.2 1-.2h.3l-3.5-3.5c.3.4.4.9.4 1.4v.2zM265.4 133.7c.4-.2.8-.3 1.2-.3.5 0 1 .2 1.4.5.3-.2.7-.3 1.1-.4l-4.5-4.5c.3.5.5 1 .5 1.6 0 .8-.4 1.5-.9 2 .6.3 1 .7 1.2 1.1zM297.3 138.6c.1-.5.1-1.1.2-1.7l-7.8-7.8c.3.4.4.9.4 1.5l-.1.5c1.3.2 2.4 1.3 2.4 2.7 0 1.5-1.2 2.8-2.8 2.8-.7 0-1.3-.3-1.8-.7-.2.2-.4.5-.6.6l.1.6c0 1.3-1 2.4-2.2 2.7l.1.5c0 .4-.1.8-.3 1.1.4.5.6 1 .6 1.6 0 1.5-1.2 2.8-2.8 2.8-1.5 0-2.8-1.2-2.8-2.8 0-.4.1-.8.3-1.1-.4-.5-.6-1-.6-1.6 0-.9.5-1.7 1.2-2.2l-3.7-3.7c.4.5.7 1.1.7 1.8 0 1.1-.6 2-1.5 2.4.2.2.4.5.5.8.3.9.1 1.9-.5 2.6 1 .4 1.6 1.4 1.6 2.5 0 1.3-.9 2.4-2.2 2.7.3.4.5.9.5 1.5 0 1.5-1.2 2.8-2.8 2.8-.9 0-1.7-.5-2.2-1.1-.5.4-1.1.7-1.8.7-1.5 0-2.8-1.2-2.8-2.8l.1-.4c-.3-.2-.6-.4-.8-.7-.2.1-.4.1-.6.1-1.2 0-2.3-.8-2.6-2-.5.5-1.2.8-2 .8-1.2 0-2.2-.7-2.6-1.8-1-.1-1.8-.7-2.2-1.6-.3.4-.6.7-1 .9-.4 1-1.4 1.7-2.5 1.7-.7 0-1.3-.3-1.8-.7l24.5 24.5h13s1.7.1 1.9-1.4l1.1-8.8c0 .2 5.1-10.9 6.2-20.3z"/></g><path opacity=".5" fill="#50AF10" d="M271 75.1l-1.6-1.6-.2.2c.7.4 1.4.9 1.8 1.4zM299.2 94zM287.8 118.1l.6-.6-.8-.8c0 .5.1 1 .2 1.4zM256.3 158.3l1.8 1.8c-.4-.7-1.1-1.4-1.8-1.8z"/><g opacity=".5" fill="#50AF10"><path opacity=".5" d="M273.7 109.5v4.1000000000000005c.1.5.4 1.2.7 1.8.4.6.8 1.1 1.2 1.1.2 0 .4-.2.5-.5l.2-.4c0-.1 0-.1.1-.2s.1-.2.1-.4c0-.1 0-.1.1-.2l.2-.5v-.1l.1-.4v-.1c0-.1 0-.2.1-.2v-.8999999999999999c.1-.6.1-1.6.2-2.9.1-1.3.2-2.9.4-4.6.6-7.1 1.5-16.9 2-20.9 0-.1 0-.3.1-.5l-8.9-8.9c.7.7 1.2 2.4 1.3 3.9.5 6.6 1.2 23.3 1.6 30.8zM288.1 86.5c-.1 5-.4 17.4-.5 24.2v.4c0 1.1 0 2-.1 2.7v1.7000000000000002c0 1.4.4 3.5 1 3.6.7.1 1.5-3.3 1.5-3.3s.1-.2.1-.6v-.2l.1-.5c0-.1.1-.2.1-.4 1-4.4 3.6-16 3.9-17.1.4-1.3 1.3-2.4 1.3-2.4s2.1-.9 3.7-.6l-12.4-12.4c.2.3.5.7.6 1 .5.9.7 2.5.7 3.9zM251.2 131.7l-9.5-9.5c1.1 1.1 2.1 2.5 2.6 3.3 1.6 2.9 3.7 6.9 3.7 6.9s1.7 3.4 3 3.1c.8-.2.3-3.4.3-3.4s-.1-.2-.1-.4zM261.6 116.6c.7-.2.8-3.3.8-3.3v-21.7l-7.7-7.7c.8.6 1.5 2.3 1.6 3.9.7 6.6 2.5 23.6 2.6 25.1.3 1.8 2 3.8 2.7 3.7zM300.8 95.6c.6 2.1.3 6 .3 6s-.9 9-1.8 18.5c-.3 2.6-.5 5.3-.8 7.8v.2c-.1.8-.2 1.6-.2 2.3v.2c-.1.7-.2 1.4-.2 2.1v.2c-.1.7-.1 1.3-.2 1.9v.3c-.1.6-.1 1.2-.2 1.7v.2c-.1.6-.1 1.1-.2 1.6-.1.6-.2 1.3-.3 2 0 .2-.1.4-.1.7l-.3 1.3-.2.8-.3 1.2-.2.8c-.1.4-.2.8-.3 1.3 0 .2-.1.4-.2.5l-.2.6-.3.9c-.1.3-.2.6-.3.8l-.4 1.3c-.1.2-.2.5-.2.7l-.3.9c-.1.3-.2.5-.3.7l-.4 1.1-.2.5c-.1.2-.1.4-.2.5 0 .1-.1.2-.1.4-.9 2.2-1.5 3.7-1.5 3.7l-.7 5.7-.4 3.1c-.1 1-.9 1.3-1.4 1.4h-28.1l15.2 15.2c29.6-4.5 52.6-29.3 54.2-59.8l-29.2-29.3z"/></g><circle fill="#0E1754" cx="65.2" cy="64.2" r="64"/><path fill="#3F51B5" d="M65.4 23c-.3-.3-.6-.5-.8-.6-1.1-.4-2.3-.5-2.7-.3-.7.5-1.4 1-1.7 1.5l-.6 1.2c-.3.7.7 3 1.1 2.9.4-.1 1.4 1.6 1.4 1.9 0 .2.2 1.9.4 3.7.2 1.7.5 7 .6 10.2.1 2.4.2 5.1.2 7.4 0 1.2-.2 3-.4 4.6-.1.8-.6 1.9-1.1 2.9-2.1 3.3-2.8-.2-2.9-1.2 0-.8 0-1.6.1-2 .2-.9.7-7.6.5-8.9s-1.7-3.7-3-4.1c-1.3-.5-3.6-.9-5-.6-.7.1-2.8 1.1-5 2.2s-7.5 5.1-9.6 7.1c-1.5 1.5-2.9 3-3.6 4.1-1.6 2.5-5.5 10.5-6.1 12.9-.6 2.4-2.2 11.2-2.2 14 0 2.8.3 15.9.6 17.2.3 1.2.5 2.6 1.3 2.7.4 0 1-.1 1.7-.3.7-.2 3.3-1.4 4.7-1.8 3-.9 8-2.3 11.3-3.1 1.7-.4 6.6-.2 7.3-.3s1.3-.7 1.4-1.1c.1-.4.1-1.6-.4-2.5-.5-.9-1.8-5.2-1.8-6.5s1.8-7.2 3.1-8.8l9.4-11.5s1.1-1.6 1.9-1.9v-41z"/><path fill="#283593" d="M103 64.1c-2.5-6.7-11.7-17.5-16-20.4-4.3-2.9-8.9-2.8-11-1.2-2 1.6-3 4.2-3 6l.7 9.7s.1 2.9-.8 3.7c-.9.8-3-2.2-3.5-3.3-.4-1-.7-2.2-.7-3 .1-2 .2-4.1.2-4.1s.2-4.4.3-8.4c.1-2.7-.2-9.5-.5-11.7-.3-2.2-.6-4.2-.8-4.9-.1-.5-1.4-2.5-2.5-3.5v40.9l.3-.1c.8 0 1.7 1.3 1.9 1.7.2.4 7 9.2 7.6 10.4.7 1.2 3.6 5.7 3.8 6.7.3 1 .4 7.2 0 8.6-.5 1.4-1.5 3.1-1.5 3.3s-.4.8 0 1.4c.1.2.5.3.8.3.6 0 2.4-.1 4.3.2 5.3.7 15.8 2.1 17.5 3.5.6.4 1.1.8 1.5 1 1.3.8 2.5.2 2.9-.4.4-.5.7-1.2.7-1.7.1-.9.3-28-2.2-34.7z"/><g opacity=".5" fill="#283593"><path d="M67.9 26.6c.2.7.5 2.7.8 4.9.3 2.2.6 9 .5 11.7-.1 4-.3 8.4-.3 8.4s-.2 2.1-.2 4.1c0 .8.3 2 .7 3 .4 1.1 2.5 4.1 3.5 3.3.9-.8.8-3.7.8-3.7s-.7-7.9-.7-9.8 1-4.5 3.1-6.1c1.9-1.5 5.9-1.6 9.8.5l-20.8-20.7-.3.3c.2.1.4.3.6.5 1.1 1 2.4 3 2.5 3.6zM91.3 47.2l-.1.1c2 2.1 4.2 4.7 6.2 7.3l1.2 1.7.6.8 1.1 1.6c.2.3.4.5.5.8.3.6.6 1.1.9 1.6l.4.7c.4.7.7 1.5 1 2.2 2.5 6.7 2.2 33.8 2.2 34.8 0 .5-.4 1.1-.7 1.7-.5.6-1.6 1.1-2.9.4-.4-.3-.9-.6-1.5-1-1.7-1.3-12.2-2.8-17.5-3.5-1.8-.2-3.7-.2-4.3-.2-.3 0-.7-.1-.8-.3-.4-.6 0-1.2 0-1.4s1-1.9 1.5-3.3.3-7.6 0-8.6-3.2-5.5-3.8-6.7c0-.1-.1-.2-.2-.4l-.1-.2-.3-.4c-.1-.1-.1-.2-.2-.2l-.4-.6c-.1-.1-.1-.2-.2-.2l-.6-.9-.1-.2-.6-.8c-.1-.1-.2-.2-.2-.3l-.6-.8c-.1-.1-.2-.2-.3-.4-.2-.2-.3-.4-.5-.7l-.3-.4c-1.6-2.1-2.9-3.9-3-4-.2-.4-1.1-1.7-1.9-1.7-.1 0-.2 0-.3.1-.8.3-1.9 1.9-1.9 1.9s-8.1 9.9-9.4 11.5-3.1 7.5-3.1 8.8 1.3 5.6 1.8 6.5c.5.9.5 2.1.4 2.5-.1.4-.7 1-1.4 1.1s-5.6-.1-7.3.3c-3.3.8-8.2 2.1-11.3 3.1-1.4.4-4 1.6-4.7 1.8-.7.2-1.3.4-1.7.3-.1 0-.2 0-.3-.1l25.2 25.2c4.3.9 8.7 1.4 13.3 1.4 29 0 53.5-19.3 61.4-45.8l-35.2-35.1z"/></g><g opacity=".5" fill="#36458E"><path d="M51.7 83.3l-14-14c-1-1-2.5-1-3.5 0s-1 2.5 0 3.5l17.8 17.8c-.5-1.6-1-3.6-1-4.4.1-.5.3-1.7.7-2.9zM48.2 69.1c-.4.4-.6.9-.6 1.4l-2.8-2.8c-1-1-2.5-1-3.5 0s-1 2.5 0 3.5l10.8 10.8c.6-1.9 1.4-3.8 2-4.6.3-.4 1.2-1.5 2.3-2.8l-5.4-5.4c-.7-.9-2-.9-2.8-.1zM50.8 57.6c-1 1-1 2.7 0 3.8l2.6 2.6c-.5.1-1.1.3-1.5.7-1 1-1 2.7 0 3.8l5.2 5.2c2.3-2.8 5.1-6.3 6.1-7.5l-8.6-8.6c-1.1-1.1-2.8-1.1-3.8 0zM79.1 82.6c.3 1 .4 7.2 0 8.6-.4 1.2-1.1 2.4-1.4 3l2 2c.8 0 1.9 0 2.9.2 3.4.4 8.9 1.2 12.8 2l-16.7-16.7c.2.4.3.7.4.9zM61.8 58.3c-2.1 3.3-2.8-.2-2.9-1.2 0-.8 0-1.6.1-2 0-.2.1-.6.2-1.2l-3-3c-1-1-2.7-1-3.8 0l-.2.2c-1 1-1 2.7 0 3.8l11.1 11.1.2-.2s1.1-1.6 1.9-1.9l.3-.1c.8 0 1.7 1.3 1.9 1.7.2.4 7 9.2 7.6 10.4.5.9 2 3.3 3 5l17.6 17.6c2.1.4 3.7.9 4.2 1.4.6.4 1.1.8 1.5 1 1.3.8 2.5.2 2.9-.4.2-.3.4-.5.5-.8l-42.5-42.5c-.2.4-.4.8-.6 1.1zM59.2 53.6c.1-1.2.3-3 .3-4.5-.2.1-.4.2-.5.4-1.1 1.1-1.1 2.9 0 4l.2.1zM105.1 85.7v-.3l-.1-3.2v-.8c0-1.1-.1-2.2-.2-3.3v-.1c-.1-2.2-.3-4.3-.5-6.2l-15.3-15.4c-.3-.3-.6-.5-1-.6l-12.4-12.4-.2.2-.2-.2c-1 1.1-1.7 2.5-2 3.8l7.5 7.5h-.1l-7.2-7.2-.2.2-.1.9c0 1.9.7 9.7.7 9.7s.1 2.9-.8 3.7c-.9.8-3-2.2-3.5-3.3-.4-1-.7-2.2-.7-3 0-1.5.2-3.1.2-3.7l-1.7 1.7-3.7-3.7v.9c0 1.2-.2 3-.4 4.6-.1.4-.2 1-.5 1.5l11 11 31.5 31.5c.1-.2.2-.4.2-.6-.1-.5-.1-6.3-.3-13.2zM69.2 43.2v-3.1s-.1 0-.1.1c-.8.8-.8 2.1.1 3zM92 58.6l12.3 12.3c-.3-2.9-.7-5.4-1.3-6.8-.6-1.5-1.4-3.2-2.5-4.9l-4.5-4.5c-.4-.4-.9-.6-1.5-.7l-12.3-12.4c-2.4-.5-4.4-.2-5.7.6l14.8 14.8c.1.6.3 1.2.7 1.6z"/></g><g fill="#304FFE"><path d="M61.6 74.8l2.5-.7-1.9 1.8 2.6.7-2.6.6 1.9 1.9-2.5-.8.7 2.6-1.9-1.9-.6 2.6-.6-2.6-1.9 1.9.7-2.6-2.5.8 1.9-1.9-2.6-.6 2.6-.7-1.9-1.8 2.5.7-.7-2.5 1.9 1.9.6-2.6.6 2.6 1.9-1.9z"/><ellipse transform="matrix(.707 -.707 .707 .707 -35.194 55.569)" cx="49.5" cy="70.3" rx="2" ry="2"/><ellipse transform="matrix(.707 -.707 .707 .707 -36.408 50.617)" cx="42.9" cy="69.3" rx="2.3" ry="2.3"/><ellipse transform="matrix(.707 -.707 .707 .707 -39.677 46.281)" cx="36" cy="71" rx="2.5" ry="2.5"/><ellipse transform="matrix(.707 -.707 .707 .707 -30.53 75.394)" cx="75.7" cy="74.6" rx="2.5" ry="2.5"/><ellipse transform="matrix(.707 -.707 .707 .707 -25.398 74.775)" cx="77.6" cy="68" rx="2.3" ry="2.3"/><ellipse transform="matrix(.707 -.707 .707 .707 -33.761 71.311)" cx="69.2" cy="76.4" rx="2.3" ry="2.3"/><ellipse transform="matrix(.707 -.707 .707 .707 -20.844 71.951)" cx="76.4" cy="61.1" rx="2" ry="2"/><ellipse transform="matrix(.707 -.707 .707 .707 -8.792 62.056)" cx="70.5" cy="41.6" rx="2" ry="2"/><ellipse transform="matrix(.707 -.707 .707 .707 -3.583 61.421)" cx="72.4" cy="35" rx="2.3" ry="2.3"/><path d="M72.6 49.8l2.5-.7-1.9 1.9 2.6.6-2.6.6 1.9 1.9-2.5-.7.7 2.5-1.9-1.9-.6 2.6-.7-2.6-1.8 1.9.7-2.5-2.5.7 1.9-1.9-2.6-.6 2.6-.6-1.9-1.9 2.5.7-.7-2.5 1.8 1.9.7-2.6.6 2.6 1.9-1.9z"/></g><g fill="#8C9EFF"><path d="M59.6 88.7c-.7 0-1.4-.3-1.9-.8-1-1-1-2.8 0-3.8s2.8-1 3.8 0 1 2.8 0 3.8c-.5.5-1.2.8-1.9.8zm0-4c-.3 0-.7.1-.9.4-.5.5-.5 1.3 0 1.9.5.5 1.3.5 1.9 0 .5-.5.5-1.3 0-1.9-.3-.3-.6-.4-1-.4zM58 95.6c-.2 0-.4 0-.6-.1-.7-.2-1.3-.6-1.7-1.2-.4-.6-.5-1.3-.3-2s.6-1.3 1.2-1.7c1.3-.8 2.9-.4 3.7.9.4.6.5 1.3.3 2s-.6 1.3-1.2 1.7c-.4.3-.9.4-1.4.4zm0-4c-.2 0-.5.1-.7.2-.3.2-.5.5-.6.8-.1.3 0 .7.2 1 .2.3.5.5.8.6.3.1.7 0 1-.2.3-.2.5-.5.6-.8.1-.3 0-.7-.2-1-.2-.4-.6-.6-1.1-.6zM53.8 69.2c-.9 0-1.8-.5-2.3-1.3-.8-1.3-.4-2.9.9-3.7 1.3-.8 2.9-.4 3.7.9.8 1.3.4 2.9-.9 3.7-.5.3-1 .4-1.4.4zm0-4c-.2 0-.5.1-.7.2-.6.4-.8 1.2-.4 1.8.4.6 1.2.8 1.8.4.3-.2.5-.5.6-.8.1-.3 0-.7-.2-1-.3-.3-.7-.6-1.1-.6zM52.7 62.2c-.9 0-1.8-.5-2.3-1.3-.4-.6-.5-1.3-.3-2s.6-1.3 1.2-1.7c.6-.4 1.3-.5 2-.3s1.3.6 1.7 1.2c.4.6.5 1.3.3 2s-.6 1.3-1.2 1.7c-.5.2-.9.4-1.4.4zm0-4c-.2 0-.5.1-.7.2-.3.2-.5.5-.6.8s0 .7.2 1c.4.6 1.2.8 1.8.4.3-.2.5-.5.6-.8.1-.3 0-.7-.2-1s-.5-.5-.8-.6h-.3zM54.3 55.8c-.7 0-1.4-.2-1.9-.8-.6-.5-.9-1.2-.9-2s.2-1.5.8-2c.5-.6 1.2-.9 2-.9s1.5.2 2 .8c.6.5.9 1.2.9 2s-.2 1.5-.8 2c-.6.6-1.4.9-2.1.9zm0-4.3c-.4 0-.8.2-1.1.5-.3.3-.4.7-.4 1 0 .4.2.7.5 1 .3.3.6.4 1 .4s.7-.2 1-.5c.3-.3.4-.7.4-1 0-.4-.2-.7-.5-1-.2-.2-.6-.4-.9-.4zM60.8 54c-.2 0-.4 0-.6-.1-.7-.2-1.3-.6-1.7-1.2-.4-.6-.5-1.3-.3-2s.6-1.3 1.2-1.7c.6-.4 1.3-.5 2-.3s1.3.6 1.7 1.2c.4.6.5 1.3.3 2s-.6 1.3-1.2 1.7c-.4.3-.9.4-1.4.4zm0-4c-.2 0-.5.1-.7.2-.3.2-.5.5-.6.8-.1.3 0 .7.2 1 .2.3.5.5.8.6.3.1.7 0 1-.2.3-.2.5-.5.6-.8.1-.3 0-.7-.2-1-.2-.3-.5-.5-.8-.6h-.3zM80.4 59.9c-.9 0-1.8-.5-2.3-1.3-.4-.6-.5-1.3-.3-2s.6-1.3 1.2-1.7c.6-.4 1.3-.5 2-.3s1.3.6 1.7 1.2c.4.6.5 1.3.3 2s-.6 1.3-1.2 1.7c-.5.3-1 .4-1.4.4zm0-4c-.2 0-.5.1-.7.2-.3.2-.5.5-.6.8-.1.3 0 .7.2 1 .4.6 1.2.8 1.8.4.3-.2.5-.5.6-.8.1-.3 0-.7-.2-1-.2-.3-.5-.5-.8-.6h-.3zM87.2 61.1c-.2 0-.4 0-.6-.1-.7-.2-1.3-.6-1.7-1.2-.4-.6-.5-1.3-.3-2s.6-1.3 1.2-1.7c.6-.4 1.3-.5 2-.3s1.3.6 1.7 1.2c.8 1.3.4 2.9-.9 3.7-.4.2-.9.4-1.4.4zm0-4c-.2 0-.5.1-.7.2-.3.2-.5.5-.6.8s0 .7.2 1c.2.3.5.5.8.6.3.1.7 0 1-.2.6-.4.8-1.2.4-1.8-.2-.3-.5-.5-.8-.6h-.3zM93.9 59.5c-.7 0-1.4-.3-1.9-.8-.6-.5-.9-1.2-.9-2s.2-1.5.8-2c1.1-1.1 2.9-1.2 4-.1 1.1 1.1 1.2 2.9.1 4-.5.6-1.2.9-2 .9h-.1zm0-4.3c-.4 0-.8.2-1.1.5-.3.3-.4.7-.4 1 0 .4.2.7.5 1 .3.3.7.4 1 .4.4 0 .7-.2 1-.5.5-.6.5-1.5-.1-2.1-.2-.2-.5-.3-.9-.3zM40.39 74.405l14.213 14.213-.919.919-14.213-14.213zM45.643 73.589l9.829 9.829-.919.919-9.829-9.829zM58.584 56.134l14.213 14.213-.919.919-14.213-14.213zM63.908 55.247l9.829 9.829-.919.919-9.829-9.829zM57.407 61.351l9.829 9.829-.919.919-9.829-9.829zM76.784 38.132l14.213 14.213-.919.919-14.213-14.213zM75.608 43.349l9.829 9.829-.919.919-9.829-9.829z"/></g><circle fill="#FF6F00" cx="-195.4" cy="65.3" r="64"/><path opacity=".5" fill="#FF8C00" d="M-133.9 83.2l-64.9-64.9c0 .1 0 .3.1.4.3 2.9-.2 6.3-.4 9.2-.3 6.8-.5 13.6-.8 20.3l-1.2 29.7v.4c-.1 7 1.9 8.3 3.6 10.6 10.4 13.5 24.2 14.4 27.7 15.6 1.1.4 1.9 1.3 2.2 2.4.3 1.1 0 2.3-.8 3.2-2.1 2.2-5.1 3.4-8.2 3.1l-20-1.6c-2.6-.2-5.3-.2-7.9.1l-1.9.2-.6.1c-3.4.4-6.7-.7-9.2-2.8l20.1 20.1h.7c29.2 0 53.7-19.5 61.5-46.1z"/><path fill="#FF9D00" d="M-206.4 18.3c-1.1.3-2.2.6-3.2.9-3.5 1.1-7 2.6-10.6 3.4-1.6.4-2.4.7-2.7 2.4-.3 1.7-.4 3.5-.6 5.3-.2 3.4-.3 6.8 0 10.3.4 6.8 1.8 13.5 4.1 19.9l2 5.7c2.5 7.6 2.5 15.8 0 23.3 0 0-1 3.5-1.5 4.5-1.8 4.2-2.1 8.8.4 12.6 2.5 3.8 6.9 5.9 11.4 5.3l.6-.1v-93.5z"/><path fill="#FF8C00" d="M-167.6 106.9c-.3-1.1-1.1-2-2.2-2.4-3.4-1.2-17.3-2.1-27.7-15.6-1.8-2.3-3.7-3.6-3.6-10.6v-.4l1.2-29.7c.3-6.8.5-13.6.8-20.3.1-3 .7-6.3.4-9.2-.1-1.2-.3-1-1.6-1.1-1.1 0-2.1 0-3.1.1s-2 .3-3 .5v93.6l1.9-.2c2.6-.3 5.3-.3 7.9-.1l20 1.6c3 .2 6-.9 8.2-3.1.7-.8 1.1-2 .8-3.1z"/><path opacity=".5" fill="#FF8C00" d="M-169.9 104.5c-3.5-1.2-17.3-2.1-27.8-15.6-1.8-2.3-3.7-3.6-3.6-10.6v-.4c.4-9.9.8-19.8 1.2-29.8l.8-20.4.1-1.2c-.5-.1-1.1-.2-1.6-.2-2.4.1-4.6-.6-6.7-1.5h-1.3c-1.8.9-2.2 2.1-1.8 4.1.6 2.4 1.9 4.6 2.7 6.9l.4 1.1c.1.2.4 1 .3.8l-3.1-3.3c-.1-.1-.2 0-.2.2-.1 1.6.2 3.2.3 4.7l.7 9.2c.2 3.1.3 6.1.4 9.2 0 1.1 0 2.2-.2 3.3l1.3 1.9v.6c.2 9 .2 17.9.2 26.9 0 .6 0 1.3-.1 1.9-.4 2.5.7 4 2.5 5.7 1 .9 1.4 1.8 1.1 3.5-1.2-1.2-1.5-1.6-2.7-2.7-1.7-1.5-2.2-2.5-4.7-1.5-1.3.5-3 2.1-4.1 3-.7.5-.9.8-1.2 1.6l-.1 1.2c.1 0 .4.6.4.7 1.5 3 3.8 5.3 6.2 7.6l1 .9c1 .2 1.1.1 2.2 0l.6-.1 1.9-.2c2.6-.3 5.3-.3 8-.1l20.1 1.6c3.1.2 6.1-.9 8.2-3.1.8-.8 1.1-2 .8-3.2-.3-1.5-1.1-2.4-2.2-2.7z"/><g fill="#FFBE07"><path d="M-205.9 41.8c1 4.2 1.7 15.2 1.7 16.8.1 1.5.3 2.3.3 2.3.3-.1.8-.5.8-.5s1.2-2 1.8-.5c.6 1.4 1.4.8 1.4.8s.2-1.8 1-1.8.9.6 1.3 1.4c.5.8 1 0 1 0 .2-3.5-2.8-20.3-3.1-22.5-.3-2.2.2-2.6.2-2.6l1.9-2.7s1.6-2.5.5-4.5c-1-2-6.5-1.7-6.5-1.7l-3.6-1.2-3.8 2.7c.1.8.7 2.7.7 2.7s3.4 7.1 4.4 11.3zM-209.4 60.9v.2-.2zM-209.4 60.9c.1-.3.4-1 1.3-1.1 1.2-.2 1.7 1.6 1.7 1.6s-2.3-24.3-3.7-26.8c0 0-.7-1.2-.5.6 0 1.9 2 21.9 1.2 25.7zM-194.8 106.8s-4.4-2.9-4.7-3.4c-.3-.5-1.3-2.2.2-2.6 1.5-.5 3-2.4 3-2.9s0-2.8-1.1-3.9l-2.5-1.4-6.7.2s-.7 0-.7-.7c.1-.8 2.4-29.3 2.4-29.3s-.7 1-1.4 1.1c-.6 0-1.9-1.1-1.9-1.1s.3 27.3 0 29.6c-.3 2.3 1.3 4.3 2.3 5.1 1.1.9 2.2 2.8.8 4.9-1.4 2.1-2 2.2-2.1 4.6-.1 2.4 7.3 2.6 7.3 2.6s4.2.1 5.4-.6c1.2-1-.3-2.2-.3-2.2zM-195.9 65.7c-.7-1.1-1.6-1-1.6-1s-.7.3-.9.9-.7.7-.9.4c-.3-.3-.5-1.4-.5-1.4s-.1-.6-.7.2c0 0-1.9 15.1-2.6 16.7-.7 1.6-2.2 5.5-2.2 5.5s-.6 2.1.1 2.8c.7.7 2 1.4 2 1.4s1.4.5 2.4-.7c.9-1.1 4.5-8 5.2-11 .6-3 3.2-12.6 2.6-14.3-.6-1.7-1.4 0-1.4 0s-.8 1.5-1.5.5zM-206.2 99.1s-1.7-1.7-2.7-2.4c-1-.7-2.9.1-2.9.1s-4.4 2.9-4.9 3.8c-.5.8-.4 2-.4 2s2.5 4.4 3.5 4.9 2.8-.5 2.8-.5 5-5 5.2-6.2c.1-1.4-.6-1.7-.6-1.7zM-181.3 105.2c-1.6-.3-12.1-5.7-11.9-5.9 0 0-1.3-.9-2.2-.2-.9.7-2.1 2.5-2.1 2.5s-.6 1.1-.2 1.7c.3.6 12.1 6.6 13.2 6.6 1.1 0 1.6.3 2.3-.1.7-.4 1.8-3.3 1.8-3.3s.5-1.1-.9-1.3zM-174.3 106.8c-.1-.3-1.1-.6-1.1-.6l-3.2-.1-.8.3s-1.5 2.7-1.5 3.1c0 .4.6.8 1 .8s3.3-.2 3.6-.3c.3-.1 1.8-1.4 2-1.9.3-.5.2-1 0-1.3z"/></g><circle fill="#FFC900" cx="-326.2" cy="65.3" r="64"/><path fill="#FFE83B" d="M-325.5 16.3c-22.3 1.4-39.3 15.7-33.9 42.1 0 5.7-11.4 14.6-8.6 17.7 2.7 3 7.4 3.1 7.4 3.1s-3 5.7-1.7 7.3c1.4 1.6 5.1.9 5.1.9s-3.5 2.5-3.5 4.5 5.9 4.6 5.9 4.6-1.1 10.9 7.8 10.1c8.9-.8 10.4-3.3 10.4-3.3l2.6 11h8.4v-98z"/><path fill="#F6A525" d="M-282.9 46.9c-1.7-8.2-.6-25.4-29-29.9-4.7-.7-9.2-1-13.6-.7v98h26l-1.2-23.9s21.1-23 17.8-43.5z"/><path fill="#FFD300" d="M-350.2 36.6zM-350.2 36.6zM-350.3 36.5h.1l-.1-.1v.1z"/><path fill="#F6FF00" d="M-351.4 35.4s2.8 3.3 3.1 4.3.1 2.1-.5 2.7l-4.5 3.4s3.3-1.9 4.8-1.3c1.6.5 1.7 1.3 1.8 1.9.1.6-.3 3.7-.3 3.7s.4-3.3 2-3.9l3.6 2.8s-2-2.3-1.6-4.1c0 0 .1-1.1 1.2-1 1.2.2 12.4 2.3 12.4 2.3s1.8.6 2.1 1.5c.3.9.6 1 .6 1s.4 0 .5-.7.4-2.8.7-3.5c.3-.8.4-1.1.2-1.3s-.4-.6-.8-.1-1.4 1.4-2.7 1.5c-1.2.1-12.3-1.7-13-1.9-.6-.2-1.5-1.7-.9-3.2l2.6-5.3s-2.5 4.3-3.4 4.7c-.9.4-1.5.1-1.6-.8-.1-.8.4-5.8.4-5.8s-1 5.5-1.3 6.4-.8.9-1.2.8c-.4-.4-4.2-4.1-4.2-4.1zM-311.4 55.1s3.7-2.3 5-2.7c1.3-.4 2.2-.2 2.6.5.5.7 1.6 6 1.6 6s-.9-4.8 0-6.2c1-1.4 3-.2 3-.2s1.9.9 3.8 1.3c0 0-3.9-1.5-4.1-2.8s3.8-3.1 6.2-3c0 0-3.8.7-5.1.4-1.2-.3-1.5-.9-1.3-1.5.2-.6 5-4.1 5-4.1s-4.6 3.2-5.6 3.6c-1 .4-1.3.2-1.7-.5-.4-.7-.2-6-.2-6l-1 5.5s-.2 2.1-2.2.6-3.9-4.2-3.9-4.2 2.8 3.5 3 4.8l-.6 2s-.7.4-2.3.1l-13.2-2.4s-1-.4-.9-1.6l-.6-1.9s-.4-.4-.6.8c-.2 1.3-1 5.2-1 5.2s-.6 1.1.3 1.2c0 0 .9-.4 1.3-.9.3-.6.7-1 1.5-1.1l13 1.9s2.4.1 2.6.8c.2.7.2.5-.3 1.2-.6.6-4.3 3.2-4.3 3.2z"/><path fill="#FFC900" d="M-304 47.4s1.1 0 1.4.6.4 1.2-.3 1.7-1.3.5-1.8-.3.2-1.7.7-2zM-343.8 42s-.1 1-.8 1.2c-.7.2-1.6.1-1.8-1-.2-1.1.3-1.7 1-1.8.7-.1 1.1.3 1.4 1l.2.6z"/><path fill="#FFDE2E" d="M-329 65.7s3.6-2.3 4.1-3.2c.5-.8.7-1.5.3-1.8-.4-.4-7.4-1.9-7.4-1.9l6.8.7s1.4-.3 1.4-1.6-1.9-3.7-3.4-4.6c0 0 3.4 2.2 3.7 3s1.6.7 1.8.1c.2-.6 1.5-3.7 1.3-5 0 0 .4 3.8.1 5.1 0 0 0 1.2 1.1.8 1.2-.4 6-3.6 6-3.6s-4.1 3.3-4.5 3.9c-.3.6-.2 1.4.4 1.5.6.1 5.1-.2 5.8-.6l-5.4 1.6s-1.7 1.1-1.1 1.8c.6.7 3.2 2.1 4.6 2.2 0 0-4-.4-5-1.1 0 0-1-.4-1.4.4s-.3 5.5 0 6.1c0 0-1.5-3.2-1.7-5.2l-2.1-1.7-5.4 3.1z"/><path fill="#EABC00" d="M-321.8 58s1.1 0 1.4.6c.3.6.4 1.2-.3 1.7s-1.3.5-1.8-.3.2-1.6.7-2z"/><path fill="#FFDE2E" d="M-341.3 28.6s3.5.9 4.1 1.5c.7.5 1.2 1.1 1.4 2.1.2 1-.6 1.6-1.1 1.9l-2.5 2.2s3-1.5 3.7-1.8c.8-.2 1.4 1.1 1.4 1.1s0 3-.3 3.3c0 0 .8-2.9 1.4-3.5.6-.6 1.1-.6 1.4-.4.3.2 2.9 3.3 3.4 4.2 0 0-2.7-4.3-2.4-5.2s1.2-1.9 1.7-2.1c.6-.3 6.1-2.1 6.1-2.1s-4.9 1-5.5.9c-.6-.1-1.6-1.1-1.1-1.6.5-.6 4.6-3.9 4.6-3.9s-4.9 3.5-5.4 3.4c-.5 0-.9 0-1.4-.6-.5-.7-.4-5.5-.4-5.5s-.6 5.1-.9 5.6c-.3.5-1.8 1.6-2.6 1.6l-5.6-1.1z"/><path fill="#EABC00" d="M-331.3 33.1s-.8.7-1.4.3c-.6-.4-1.2-1.1-.6-2 .6-.9 1.5-1 2-.6s.6 1 .3 1.6l-.3.7z"/><path opacity=".5" fill="#F6A525" d="M-352.4 104.9zM-352.9 104.4l.5.5c-.2-.2-.3-.4-.5-.5z"/><path opacity=".5" fill="#EABC00" d="M-346 38.4v-.1l-1 1c.4-.1.7-.3 1-.9z"/><g opacity=".5" fill="#EABC00"><path d="M-330.4 28.5c.4 0 2.7-1.6 2.7-1.6l-4.5-4.6c0 .9 0 4.9.4 5.5.5.8.9.7 1.4.7zM-335.8 32.2c-.2-1-.8-1.6-1.4-2.1-.7-.5-4.1-1.5-4.1-1.5l5 5c.3-.3.6-.7.5-1.4zM-343.4 38.6c.5-.2 1.6-1.8 2.4-3l-3.6-3.6s-.4 5-.4 5.8c.1.9.7 1.2 1.6.8zM-282.7 54.8l-12.1-12.1s-4.8 3.5-5 4.1c-.2.6.1 1.2 1.3 1.5.6.2 1.9.1 3-.1.7-.2 1.4-.3 2.1-.3 0 0-.9.2-2.1.3-2.1.6-4.3 1.8-4.1 2.7.2 1.3 4.1 2.8 4.1 2.8-1.8-.4-3.8-1.3-3.8-1.3s-2-1.3-3 .2c-1 1.4 0 6.2 0 6.2s-1.1-5.3-1.6-6c-.5-.7-1.3-.9-2.6-.5s-5 2.7-5 2.7 3.7-2.6 4.3-3.3c.5-.7.6-.5.3-1.2-.2-.7-2.6-.8-2.6-.8s-12.2-2-13-1.9c-.8.1-1.2.5-1.5 1.1-.3.6-1.3.9-1.3.9-.9-.2-.3-1.2-.3-1.2s.7-3.9 1-5.2c.2-1.3.6-.8.6-.8s.7.8.6 1.9c0 1.2.9 1.6.9 1.6s11.5 2.1 13.2 2.4c1.7.3 2.3-.1 2.3-.1s.8-.7.6-2c-.1-.8-1.3-2.5-2.1-3.6-.5-.7-.9-1.2-.9-1.2s.4.5.9 1.2c.7.9 1.8 2.2 3 3.1.8.6 1.3.6 1.6.4l-21.1-21.2s-4 3.3-4.6 3.9c-.5.6.6 1.5 1.1 1.6.6.1 5.5-.9 5.5-.9s-5.5 1.9-6.1 2.1c-.6.3-1.4 1.2-1.7 2.1-.3.9 2.4 5.2 2.4 5.2-.5-.8-3.1-4-3.4-4.2-.3-.2-.8-.2-1.4.4-.4.4-.9 2.1-1.2 2.9 0 .3-.1.5-.2.5 0 0 .1-.2.2-.5.1-.9.2-2.8.2-2.8s-.6-1.3-1.4-1.1c-.4.1-1.5.6-2.3 1.1l-.2.2-.1-.1c-.6.3-1.1.5-1.1.5s.4-.3.9-.8l-1.5-1.5c-.1.2-2.1 3.8-2.5 5.3-.5 1.5.3 3 .9 3.2s11.7 2 13 1.9c1.2-.1 2.3-1 2.7-1.5.4-.5.7-.1.8.1.1.3 0 .5-.2 1.3-.3.8-.5 2.9-.7 3.5-.1.6-.5.7-.5.7s-.3-.1-.6-1-2.1-1.5-2.1-1.5-11.3-2.1-12.4-2.3c-1.2-.2-1.2 1-1.2 1-.2 1 .2 2.1.7 2.9.5.6.9 1.2.9 1.2s-.4-.5-.9-1.2c-.7-.9-1.8-1.9-2.7-1.5-1.5.7-2 3.9-2 3.9s.4-3 .3-3.7c-.1-.6-.3-1.3-1.8-1.9-1.6-.5-4.8 1.3-4.8 1.3l53.1 53.1-.4-8.5c-.4.4 15.7-17.1 17.6-35.2zm-29.3 3.7l-4.8 1.4s-1.7 1.1-1.1 1.8c.6.7 3.2 2.1 4.6 2.2 0 0-4-.4-5-1.1 0 0-1-.4-1.4.4-.4.7-.3 5.5 0 6.1 0 0-1.5-3.2-1.7-5.2-.2-2-2.1-1.7-2.1-1.7l-5.5 3.2s3.6-2.3 4.1-3.2c.5-.8.7-1.5.3-1.8-.4-.4-7.4-1.9-7.4-1.9l6.8.7s1.4-.3 1.4-1.6-1.9-3.7-3.4-4.6c0 0 3.4 2.2 3.7 3 .3.8 1.6.7 1.8.1.2-.6 1.5-3.7 1.3-5 0 0 .4 3.8.1 5.1 0 0 0 1.2 1.1.8 1.2-.4 6-3.6 6-3.6s-4.1 3.3-4.5 3.9c-.3.6-.2 1.4.4 1.5.6.1 3.9-.2 5.3-.5l.6-.2c-.1.1-.3.2-.6.2z"/></g><g opacity=".5" fill="#F6A525"><path opacity=".5" d="M-359.6 93.6l4.8 4.8c-.1-1.1 0-1.9 0-1.9s-3.1-1.4-4.8-2.9zM-357.2 87.4s-3.1.5-4.7-.6l2.5 2.5c1-1 2.2-1.9 2.2-1.9zM-368.1 76l6.1 6.1c.6-1.6 1.3-3 1.3-3s-4.6-.1-7.4-3.1zM-263.3 53.5l-25.5-25c4.8 6.4 4.9 13.8 5.9 18.4 3.3 20.5-17.8 43.5-17.8 43.5l1.2 23.9h-34.4l-2.6-11s-1.5 2.5-10.4 3.3c-2.5.2-4.2-.5-5.4-1.6l24.9 24.3h1.3c35.3 0 64-28.7 64-64-.1-4-.5-8-1.2-11.8z"/></g></svg>