<svg xmlns="http://www.w3.org/2000/svg" width="500" height="500" viewBox="0 0 500 500"><style type="text/css">.st0{fill:#FFFFFF;}</style><path class="st0" d="M164.5 308.3c25.7 0 51.5-.3 77.2.2 7.1.1 12-1 14.8-8.1 1.8-4.4 4.4-8.6 7-13.6h-68.5c1.7-3.7 3-6.5 4.6-10.1-6.2 0-11.6.2-17-.1-3.7-.2-6.1.7-7.6 4.4-1 2.5-2.8 4.6-4.1 6.9-3.8 6.5-7.5 13.1-11.7 20.4h5.3zM159.6 203.6c.4 1.1.5 1.7.9 2.2 5.7 10 11.5 20 17.3 30 .4.7 1.4 1.4 2.1 1.4 6.3.1 12.6.1 19.9.1-2-4.2-3.6-7.7-5.4-11.6 4.2-.1 7.9.8 10-3.5 2.1-4.2 4.8-8.2 7.2-12.3 1.1-1.9 2.1-3.9 3.4-6.3h-55.4zM267.4 103.2c-2.9 7.8-2.5 10.6 1.4 12.3-1.5 3.7-3.1 7.4-4.7 11.3-5.2-.9-4.8 3.5-6.5 7.1 2.6.7 4.7 1.1 6.7 1.6 3 1 4.5-.3 4.8-3.1.5-3.9.7-7.7.9-11.6.2-4 1.5-5.2 5.4-4.6l4.2.8c3.2.6 4.8 3 4.2 6.3-.9 5-1.8 10-2.7 15.2h5c.7-4.2 1.2-8.2 1.8-12.1.6-3.8 1.2-7.6 1.6-11.4.3-3-1.3-4.5-4.2-5.5-6-2-13.3-.3-17.9-6.3zM234.4 274.3c5.1.8 9.3-1.3 12.6-5.1 5.4-6.2 3.7-13.3 2.7-20.3-.4-3.1-1.7-5.5-5.5-5.8-6.6-.5-13.6 1.8-20.3-2.7-.1 1.8-.4 2.7-.4 3.6.9 6.6 1.7 13.2 2.8 19.8.8 4.9 2.4 9.5 8.1 10.5zm1.8-22.2c6.9-.3 10.2 3.3 9.3 10-.1.4-.1 1-.3 1.1-2.9 1.1-5.8 2.8-8.8 3-2.8.2-5-1.9-5.3-5.1 0-.6-.1-1.3-.2-1.9-1.5-6.3-1.2-6.8 5.3-7.1zM224.8 361.4c-7.9-6.3-16.7-10.3-26.6-12-2.6-.5-5.3.3-8 .5-.1.6-.2 1.2-.2 1.9 12.2 6.4 24.5 12.7 37.6 17.5 1.1-3.8-.5-6.1-2.8-7.9zM214.3 252.2v20.6c.4.2.7.5 1 .9 1.5-1.8 5.5.5 5.4-3.8-.1-2.7-1.2-5.3-1.2-8 0-3.2-.4-7.2 1.2-9.5 1.8-2.6 1-4.6.4-6.6-.3-1.1-2.6-2.2-4.1-2.4-8-1-16.3 1.7-24.6-2.4v6.7c0 3.2 1.2 4.8 4.9 4.6 5.6-.3 11.1-.1 17-.1zM351.7 205.9c-4.2 3-4.5 6.5-4 9.9 1.3 8.7 3.1 17.4 7.7 25.1 1.7 2.9 3.8 5.4 8.9 5.9-4.3-14-8.3-27.2-12.6-40.9zM319.5 149.4c-3.4 4.6-3 5.7 2.4 6.6 4-6.5 7.6-12.5 11.5-18.5 2.1-3.3 4.1-6.2-.9-8.8-.6-.3-.6-1.6-1-2.3-.5-.9-1.2-1.6-2-2.7-.9 1.3-1.5 2-1.9 2.8-1.7 3.1-5.1 6-.7 9.6.4.4 0 2.3-.5 3.1-2.2 3.4-4.5 6.9-6.9 10.2zM299.6 276.7c-7.4 0-13.6-.1-19.8.1-1.2 0-2.7.8-3.5 1.8-1.6 2-2.9 4.3-4.2 6.5-7.2 12.6-14.4 25.2-21.9 38.3-1.9-3.3-3.5-6.1-5.3-8.9-.5-.8-1.5-1.8-2.2-1.8-6.7-.2-13.4-.1-20.9-.1 9.6 16.7 18.7 32.6 28.1 49 16.7-28.5 32.9-56.3 49.7-84.9zM342 338.8c5.1-6.6 9-13.8 10.6-22 .7-3.7.7-7.7-2.2-10.6-6.7 12.2-13.4 24.3-19.9 36.4 3.6 1.3 8.7-.2 11.5-3.8zM339.7 165.7c-1.2 1.4-2.2 3-3.3 4.6 1.8.9 3 1.4 4.2 2 5.3-6 10.6-11.8 15.5-18.1 2.1-2.6 1.2-5.5-1.1-7.9-3.3-3.4-8.2-5.5-8.9-11.1-.1-.4-1.2-.7-1.9-1.1-2.1 2.7-4.1 5.1-6.4 8 2.9 2.7 5.5 5.4 8.3 7.8 2.6 2.3 3 5.2.8 7.7-2.4 2.7-4.9 5.4-7.2 8.1zM336.5 303.9c-3.7-6.5-7.8-12.8-11-19.5-2.5-5.1-5.5-7.8-11.5-7-4.2.6-8.6.1-13.5.1 1.8 3.5 3.2 6.2 4.7 9.1-3.2.7-6.2-.6-8 2.8-3.2 6.1-6.9 11.9-10.8 18.6h52.2c-.8-1.6-1.4-2.9-2.1-4.1zM306.6 138.7c-4.2-2.2-8.6-4-13.1-6.1-1.5 2.2-2.9 4.4-4.6 7.1 6.2 2.9 11.9 5.8 17.7 8.3.9.3 2.9-.8 3.8-1.8 4.3-4.8 6.7-10.6 8.1-16.8 1.4-5.9.5-7.8-4.6-10.6-2.8-1.5-6.6-1.8-7.8-5.7-.1-.2-2.7-.1-3.1.5-3.9 6.1-3.2 8.4 3.2 11.3.1.1.3.1.4.1 7.4 1.8 6.1 6.4 4.4 12-.7 2.4-2.1 2.9-4.4 1.7zM329 341.1c6.9-11.5 14-23 18.8-36.2-2.1.2-3.9.5-5.1 1.5-8.7 7.6-14 17.4-16.8 28.5-.5 2.3-.6 5 3.1 6.2zM369.7 241c.5-3.5.7-7.3.1-10.9-1.1-7.1-3.7-13.9-8.3-19.6-2.2-2.8-4.9-5.1-8.3-4.6 4.2 13.4 8.4 26.5 12.8 40.7 1.5-2.2 3.4-3.8 3.7-5.6zM355.3 268.7c-6 9.9-6.5 21-6 32.1.1 1.5 1 2.9 1.9 4.2.5.8 1.6 1.1 2.4 1.6.5-.8 1.2-1.6 1.4-2.5 1.1-6.1 2.3-12.1 3.1-18.2.9-6.5 1.4-13 2-19.5l-1.5-.8c-1.1 1-2.6 1.8-3.3 3.1zM363.9 302.9c4.7-8.4 5.1-17.5 4.2-26.7-.4-4.1-1.6-8.7-6.1-9.8-1.8 13.6-3.6 27-5.5 41 3.3.7 5.7-1.4 7.4-4.5zM193.3 273.3c2.4-.4 4.2-.7 6.2-1.1 0-5.2 0-10-.1-15.2-2 .5-3.6.8-5.5 1.3 0 2.5.1 5 0 7.4-.1 2.4-.3 4.7-.6 7.6zM237.9 126c-2.3.4-4.7 0-7 .2-6.3.5-7.7 2.6-5.6 9.2l22.6-1.8c.4-3 .7-5.2 1-7.7-1.1-.4-2.2-.6-3.5-1-.4-4.6-.8-8.9-1-13.5-.3-5.2-1.7-6.3-6.9-6.6-3.9-.2-8 1.4-11.6-1.3-.2-.1-2 1.1-2.1 1.7-.6 7.3 2.6 10.1 9.7 8.6.3 0 .8-.5 1-.4 1.6.8 4 1.2 4.6 2.5 1.1 2.3 1.4 5.2 1.5 7.8 0 .8-1.7 2.1-2.7 2.3zM349.6 170.2c-2.5 1.1-5.1 2.3-7.8 3.5 1.4 2 2.2 3.5 3.4 4.7 1.3 1.4 3.2 3.7 4.4 3.4 2.5-.6 5.7-.8 6.6-4.8.5-2.3 3.3-4.1 5-6.1.5.2.9.5 1.4.8-1.5 8-3 16.1-4.5 24.2 6.6-1 9.2-3.5 9.5-8.1.2-2.4-1.8-5.8 1.7-7.2 3.8-1.5 4.4 2.6 6.6 4.6 1.3-1 2.3-1.7 3.1-2.3 3.1-2.3 3-3.7-.3-8-2.1-2.8-3.8-1.2-5.7.4-1.3 1.1-2.8 1.9-4.2 2.9-.3-.3-.7-.6-1.1-.9 1-5.2 2-10.4 3.1-16.2-3.5 1.6-8 .9-8.7 6 0 .4-.6.9-1 1.1l-9.2 4.6c-.6-.7-1.4-1.6-2.3-2.6zM383.1 238.6c.8 1.8 2.8 3.1 4.3 4.6l1.7-.8-2.4-41c-.6-.2-1.2-.4-1.7-.4-1 1.4-2.3 2.6-2.9 4.1-1 2.6-1.8 5.3-2.1 8.1-.9 8.7-.5 17.3 3.1 25.4zM398 234.5c1.8-8.9.7-17.7-2.5-26.1-1.2-3.3-2.9-7-7-7.2.6 13.8 1.2 27.5 1.9 41.2 3.8-.8 6.8-3.8 7.6-7.9zM298.5 237.3c-1.4-2.6-2.2-4.3-3.3-6-.9-1.1-2.1-2.8-3.2-2.9-6.3-.2-12.6-.1-18.9-.1l-.9 1.1c2 2.6 3.6 7.1 5.9 7.5 6.4 1.1 13.1.4 20.4.4zM319 237.2c1.7-.1 4-1.3 4.9-2.7 4-6.1 7.7-12.4 11.5-18.7 2.4-3.9 4.8-7.8 7.5-12.4h-5.6c-25.9 0-51.7.2-77.6-.2-6.4-.1-10.3 1.7-13.1 7.3-2.6 5-5.7 9.7-9 15.2h70.1c-2.2 4-4.2 7.5-6.6 11.6 6.5 0 12.2.2 17.9-.1zM226.8 282.6c-1.5-1.8-2.9-4.9-4.6-5-6.6-.5-13.2-.2-19.8-.2l-.8 1.1c1.8 1.8 3.4 5.1 5.4 5.3 6.3.7 12.7.3 19 .3.2-.4.5-.9.8-1.5zM278.3 245.8c-.5-1.3-3.1-2-4.9-2.5-1.5-.4-3.3.1-5-.1-4.8-.5-10 1.6-14.4-2.2-.3-.3-1.4.1-2.3.3.3 3.6.7 7 1.1 10.6h17.6v20.8c5 .8 6.9-.1 6.6-2.7-.4-2.6-1.3-5.3-1.3-7.9 0-3.3-.5-7.5 1.2-9.8 1.8-2.3 2.2-4.5 1.4-6.5zM308.4 251.7c3.2-2.1 0-4.4.5-6.6.1-.4-2-1.8-3.2-1.9-8.4-1-17.2 2-26.1-2.9.4 4.4.8 7.9 1.2 11.7h21v21.4c2.8-1.2 6.9.3 6.6-4.8-.3-2.8-1.3-5.5-1.3-8.3 0-2.9-2-6.4 1.3-8.6zM286.9 270.8c.6-4.3.2-8.9.2-13.4-4.5-.1-6.3 1.5-5.9 5.6.3 3.2.1 6.5.1 11.1 2.3-1.3 5.5-2.1 5.6-3.3zM222.7 237.2c.7 0 1.7-1 2.2-1.8 5.7-9.5 11.2-19.1 16.8-28.6 2.9-4.9 5.8-9.8 9-15.1 1 1.9 1.7 3.3 2.5 4.6.7 1 1.6 2.6 2.4 2.6 6.8.2 13.6.1 21.5.1-9-15.5-17.5-30.1-26.4-45.4-16.6 28.1-32.9 55.4-49.7 83.7 8 0 14.8.1 21.7-.1zM227.1 92.3h42.9c5.5 0 5.5 0 5.5-5.3v-59.7c0-8.8-.1-17.7-.2-26.5-17.4 0-34.8 0-52.3-.1-.1.4-.2.8-.2 1.2 0 28.9 0 57.7-.1 86.6 0 3.3 1.6 3.8 4.4 3.8zM282.5 399.6c10.7 3.6 20.7.8 30.3-4.2 3-1.6 5.8-3.8 6-7.6-13.9 2.3-27.4 4.5-42.2 7 2.3 1.9 3.8 4.1 5.9 4.8zM222.9 412.8v69.3c0 6.2.1 12.5.2 18.7h52.3c.1-.8.2-1.5.2-2.3v-82.6c0-1-.2-2-.3-3.1h-52.4zM189.3 353.6zM223.2 394.4c1.7-1.5 3.7-2.7 5.2-4.5 3.1-3.7 8.1-3.8 11.2.1 1.2 1.4 2.5 2.8 4.4 4.8v-13h-11.3c-1-4.1-1.8-7.6-2.7-11.2l-1.5.3c.2 3.3.4 6.6.7 10.5-15.7-1.9-29.3-7.7-42.2-14.9.5-4 1-7.5 1.5-11.2 2.2 3.2 3.8 7.1 6.6 9.5 6.1 4.9 13.1 8.5 21 10 5.1.9 7.5.3 10.4-3.6-12.4-5.8-24.8-11.7-37.2-17.6 0 0-.1.1-.1.2 0-7.2-2.1-10.7-7.6-13-3.1-1.3-6-.8-8.1 1.6-2 2.2-2.2 4.8-.6 7.8 2.8 5.2 7.2 7.4 12.9 8-.6 2.1-1.1 3.8-1.8 6-5.1-3.7-9.9-7-14.4-10.6-.7-.6-.9-2.5-.6-3.6.6-2.4 1.6-4.7 2.4-7-.4-.2-.7-.4-1.1-.5 4.6-6.3 2.3-12-.3-16.5-4.8-8.3-7.7-18.7-18.6-21.4-.5.4-1 .9-1.4 1.3 6.6 11.9 13.1 23.8 20.1 36.5-.1 0-.1 0-.2-.1-.7 1.5-1.6 2.8-2.2 4.3-1.4 3.4-2.3 3.7-4.9 1.2-9.8-9.4-18.5-19.7-24.8-31.7 2.2-2.7 4.5-5.3 6.7-7.9l-1.1-1.1c-2.4 1.9-4.7 3.8-7.2 5.9-5.8-11.6-8.9-23.6-11.3-35.8-.8-4.3-.1-6.5 4.2-7.9 2.2-.7 4.3-2.4 5.9-4.2 1.7-1.9 3.7-4.5 3.7-6.8.1-2.1-1.8-5.1-3.7-6.3-1.1-.7-4.4.9-5.9 2.4-3.8 3.8-1.5 7.7 1 11.4-2.2 1-4 1.9-6.7 3.2 0-5.2.1-9.6 0-13.9-.1-2.5.6-3.8 3.4-4.3 2.5-.5 4.8-2 7.2-3.1l-.5-1.3c-3.1.8-6.3 1.6-9.9 2.6.1-4.8-1.1-9.3 1.7-13.4 2.4-3.7.1-6.5-1.8-9.7-1.6 2.7-3.4 5.3-3.7 8.1-.5 4.9-.1 9.8-.1 15.4-3.4-1.9-6.4-3.4-9.3-5 1.4 4.9 5.5 5.9 9.8 7.3v18c-2.7-.7-5.4-1.4-7.5-2 .5-2.8 1.4-4.7 1.3-6.7-.1-3.8-3.3-7.1-6.3-7.2-3.8-.1-5.2 2.6-5.5 5.4-.3 3.5 1.2 6.8 4.6 8.3 4.1 1.8 8.3 3.1 12.4 4.8 1 .4 2.1 1.6 2.2 2.5 1.5 13 4.8 25.4 9.7 37.5 1.3 3.1.3 4.1-2.7 3.9-2.4-.2-4.7-.5-7.9-.8 3.2 3.4 6.5 2.8 9.6 2.7 2.5-.1 3.8.8 5.1 3 3.6 6.2 7.4 12.3 11.7 18.1 4 5.5 8.8 10.4 13.6 16-3.2.9-6.1 1.8-9 2.6 2.6.9 5.4 1.7 7.1.7 3.6-2.3 5.8-.9 8.6 1.3 4.1 3.4 8.5 6.4 13.5 10.1-3.2 1.4-5.8 2.5-8.5 3.6-2.2-8.3-5.9-11.4-12.5-11.1-3.4.2-5.2 2.1-5.6 5.6-.9 8.5 6.9 11.7 12.7 10.2 5-1.2 9.6-3.9 14.5-5.7 1.4-.5 3.3-.5 4.6 0 7.6 3 15.1 6.6 22.8 9.3 6 2.1 12.3 3.3 18.8 5-2 2.4-3.8 4.4-5.6 6.5l1.1 1.1zm-34.3-39.8l-.1.1c.1 0 .1-.1.1-.1zM119 331.5c-.6 5.6 2.2 10 5.5 14 4.6 5.7 9.2 11.4 16.5 13.8 3.9 1.3 6.6.6 7.9-1.2-9.7-9.8-19.4-19.5-29.2-29.4-.1.9-.5 1.9-.7 2.8zM182.8 393.2c9.9 6.9 21 9.6 32.9 6.8 2.5-.6 5.1-2.4 5-5.4-13.8-2.3-27.1-4.5-41.3-6.9 1.2 2 1.9 4.4 3.4 5.5zM199.8 381.4c-10.6-1.9-17.3-.1-19.8 4.9 13.9 2.2 27.4 4.4 41 6.6.3-.6.5-1.1.6-1.6-4.5-8.9-13.8-8.4-21.8-9.9zM149.2 346.2c-5.1-5.9-10.7-11.5-16.6-16.5-2.7-2.3-6.3-5.1-11.8-2.2 10.1 10.1 19.8 19.8 29.6 29.7 3.5-4.7 1.1-8.3-1.2-11zM395 276.6c-.3-.4-.6-.8-.9-1.1-1.7.9-3.8 1.5-5.2 2.8-6.5 5.9-9.4 13.9-12.2 21.9-1.1 3.1-1.4 6.5-1.5 9.8 0 1.2 1.5 2.4 2.3 3.6.9-.9 2-1.7 2.5-2.7 2.8-5.8 5.6-11.5 8.2-17.4 2.4-5.5 4.5-11.2 6.8-16.9zM397 276.8c-5.8 13.2-11.4 25.7-16.9 38.3 6.3 1.6 10.1-2.4 12.3-7 3.2-6.7 5.2-14 7.7-21v-3.1c-1-2.5-2.1-5-3.1-7.2zM349.6 358.3c5.5 3.5 11.9 1.1 20.7-7.9 8.3-8.5 11.5-17.1 8.5-21.6-9.9 9.9-19.6 19.8-29.2 29.5zM312.4 381.4c-10.4-.8-20.8-.1-30.5 4.4-2.5 1.1-5.1 2.7-4 7.1 13.5-2.2 26.9-4.4 40.6-6.6-.7-4.1-3.7-4.7-6.1-4.9zM318.8 387.8zM369.5 327.6c-8 4.4-14.6 10.7-19.9 18.1-2.2 3-4.3 6.6-1.2 11.9 10.3-10.3 20-19.9 29.8-29.6-3.6-3.1-6.4-1.7-8.7-.4zM339.3 353.2c9.6-8.4 17.5-18.3 23-29.7 2.4-5 5.3-5.3 9.6-5.2 1.8.1 3.7-.8 5.5-1.3l-.2-1c-3.4-.8-7.3 2.3-9.7-.4 3.9-14.7 7.6-28.6 11.3-42.6 3.6-1.5 7.7-3.2 11.8-4.8 4-1.5 5.9-4.2 5.8-8.5-.1-2.6-.9-5.1-3.7-5.6-3-.6-6.1.3-6.8 3.6-.6 2.9-.1 6.1-.1 10.1-1.7.5-4.2 1.3-7.5 2.4.3-6.8.6-12.7.8-17.1 4.3-3 7.3-5.1 10.4-7.3l-.8-1.3c-3 1.6-6.1 3.2-10.1 5.4 0-5-.8-9.1.2-12.8 1.3-5-1.4-7.7-4-11.2-1.7 3.7-3.4 6.5-1.1 10.8 1.8 3.4 1.7 8 2.5 12.7-4.4-1-7.6-1.8-10.8-2.6-.1.5-.3 1-.5 1.5 3.6 1.5 7.1 3 11.1 4.7-.4 5-.8 10.3-1.2 16-1.2-.5-1.6-.7-2.1-.9-2.7-1.1-5-2-1.9-5.4 1-1 1.2-3.9.5-5.1-1.5-2.3-3.6-4.5-6-5.8-.8-.4-3.5 1.6-4.6 3.1-1.6 2.3-.2 8.3 2.1 10 2.4 1.8 4.9 3.8 7.7 5 3.7 1.6 4.3 4 3.4 7.4-1.8 7.1-3.2 14.3-5.3 21.3-1.6 5.1-3.9 9.9-6.1 15.3-2.8-2.5-4.9-4.3-7-6.2l-1 .9c.9 1.3 1.6 2.7 2.6 3.9 1.1 1.4 2.3 2.7 3.6 4.2-6.5 13-16.2 23.8-27.5 33.6-1.5-2.6-2.8-4.9-4.1-7.1-.4.3-.9.5-1.3.7.8 2.2 1.6 4.2 2.2 6.4.3.9.4 2.6-.1 3-4.7 3.9-9.6 7.5-15 11.6-.6-3-.9-4.9-1.3-6.8 6.2 0 11.2-3.4 13.1-8.7 1.4-4.1-1.3-8.3-5.7-8.7-4.6-.4-10 3.1-10.6 7.8-.2 1.5-.7 2.6-1.3 3.5l-.3-1.5c-1.7-.5-3.4-1.3-5-1.2-11.6.7-21.7 5-30.1 12.9-1.7 1.6-2.6 4-3.8 6 .5.5 1.1 1 1.7 1.5l37.2-17.4c-.9 1-2 1.8-3.2 2.6-2.4 1.5-4.8 3-7.4 4.2l-23.7 10.3c-.8.4-1.6 1.1-2.4 1.6.7.9 1.1 2.3 2 2.6 2.3.8 4.9 2 7 1.5 5.2-1.4 10.6-3.2 15.4-5.7 6.1-3.1 11.9-7 13.7-14.8.6 3.7 1.2 7 1.4 10.3 0 .9-1.1 2.5-2 2.9-9.7 3.9-19.4 7.9-29.3 11.5-3.4 1.3-7.1 1.5-11.1 2.2.5-4.2.9-7.4 1.3-10.7-.5 0-1.1-.1-1.7-.2-.9 3.7-1.8 7.3-2.9 11.4-2.7 0-5.6-.1-8.3 0-1 .1-2.5 1.2-2.6 1.9-.3 3.2-.1 6.4-.1 10.2 1-.7 1.5-.9 1.8-1.2.4-.4.9-.9 1.3-1.4 4.9-6.3 8.5-6.3 13.4-.4 1.2 1.4 3.2 2.2 4.8 3.2l.6-.9c-1.9-2.1-3.7-4.2-5.4-6.1.3-.6.3-.8.4-.8 14.5-3.1 28.6-7.4 41.7-14.5.6-.3 1.6-.6 2.2-.4 4.5 1.7 8.9 3.7 13.5 5.3 2.3.8 4.7 1.5 7 1.4 4.7-.2 9.2-4.9 8.6-9.1-.4-2.2-1.9-5-3.8-6.1-3.1-1.8-7-1.3-9.6 1.4-2.4 2.4-3.9 5.5-6.1 8.7l-7.4-3.3c5.8-4.3 11-8 16.1-11.9 1.7-1.3 3-.9 4.8-.2 2.4.9 5.2.9 7.8 1.3 0-.4.1-.9.2-1.3-2.9-.8-5.8-1.7-9.2-2.6.9-1 1.2-1.6 1.7-2zM145.9 315.5c1.2 7.8 4.6 15 9.4 21.2 2 2.6 5.1 4.6 8 6.4 1.1.6 3.1-.2 4.7-.4-.4-1.4-.4-2.9-1.2-4-7.3-10-12.9-20.9-17.4-32.9-3.8 2.4-4 6.2-3.5 9.7zM139.9 265.3l-1.7.9 5.6 40.5c4.3-.1 4.9-3 5.2-5.1 1.7-11 .1-21.7-4.9-31.7-.9-1.8-2.8-3.1-4.2-4.6zM131.8 271.9c-3.5 10.3-1.6 20.3 2.2 30 1.6 4.2 5.3 5.9 8.2 5.1-1.9-13.4-3.8-26.9-5.9-41.6-1.7 2.4-3.7 4.2-4.5 6.5zM195.7 123.2c.6 3.3 1.4 6.5 1.7 9.8.1 1-1 2.2-1.6 3.2-.5.9-1.7 1.8-1.7 2.7 0 1.7.7 3.5 1.1 5.6 2.2-.6 4-1.2 5.9-1.3 4-.6 4.7-2.9 3.2-6.2-1.4-3.2-3.4-6.2-4.5-9.4-.6-1.7-.7-5.2.1-5.6 3-1.5 6.5-2.7 9.8-2.7 3.4 0 3.7 3.7 4.5 6.4 1.2 4 2.4 8 3.7 12.4 2.1-1.5 5.4-1.1 4-4.8-2.4-6.5-4.9-13-7.2-19.5-1.2-3.2-3.5-4.3-6.7-3.7-6.4 1.2-12.2 5.6-19.3 2.8 2.1 8.9 3.2 10.4 7 10.3zM135.7 166.6c4.4 5.7 8.5 11.3 12.9 17.1l3.2-4.5c-1.7-2-3.5-3.8-5-5.9-2.2-3-4.6-6-5.8-9.4-.6-1.8.6-4.9 2.1-6.4 1.1-1.1 4-1.1 5.9-.6 2.5.7 4.8 2.4 7.5 3.9-1.4 1.8-2.5 3.3-3.8 4.7-3.8 4-3.8 3.9-.2 8 .6.7 1.3 1.5 2.1 2.4 3.5-3.8 6.8-7.4 11-12-6.2-5.4-12.1-10.8-18.1-15.8-1.7-1.4-4-2.2-6.4-.5-5 3.6-5.8 5.8-4.2 11.9.2.9 0 1.9 0 3.7-4.5-6-8.5-2.3-13.6-.8 3.2 2.8 5.9 5 8.5 7.2 1.3-1 2.3-1.7 3.9-3zM155.6 144.9c4.7 3.2 10.1 5.3 15.6 8.1-2.3 3.1-4 5.5-5.9 8 1.5 2.1 2.9 4 4.6 6.3 2.2-3 4.2-6 6.4-8.8 3.8-4.9 4.4-9.9 1.7-15.7-1.5-3.3-4.5-6.3-3.3-10.7.6-2.4-4.4-6.5-6.1-5.6-2.1 1.2-4 2.7-5.9 4.1 2.6 4.3 2.6 4.3 7.8 6.3 3.1 1.2 4.4 10.4 1.9 13.4-.4-.2-.9-.3-1.3-.6-1.8-1.4-3.6-2.9-5.5-4.2-1.9-1.2-3.5-2.1-2.5-5.1.7-2.2-3.1-7.2-4.7-6.7-2.9.8-5.7 1.9-9.2 3.2 2 2.6 3.6 6.1 6.4 8zM147.7 205.8c-5.2 13.7-9.6 26.7-11.7 40.6 11.3-5.5 12-16.7 14.4-26.6 1.1-4.1 1.8-9.3-2.7-14zM165.6 163.9zM99 281.6v8.6c2.2 5.5 4 11.2 6.6 16.6 3.5 7 7.9 9.3 12.9 8-5.5-12.6-11-25.2-16.7-38.3-1 1.8-1.9 3.5-2.8 5.1zM112 201.3c-.8 13.7-1.5 27.3-2.2 40.9l1.8.9c1.6-2 3.6-3.7 4.6-5.9 1.3-2.8 2.2-5.9 2.2-8.9-.1-7.5-.5-15.1-1.3-22.6-.2-2.1-1.3-4.8-5.1-4.4zM105.7 241.7c.4.6 1.9.4 2.8.6l.2-2.4c-.3-13-.3-26.1 3.1-39.4-5.2 1.3-7.5 4.6-9.1 8.7-3 7.6-2.7 15.5-2 23.3.3 3.2 3.1 6.2 5 9.2zM121.7 313.8c.6-1.5 1.6-3.1 1.6-4.6 0-12.1-5.9-21.8-13.2-30.8-1.1-1.4-3.4-1.9-5.1-2.8-.4.4-.9.9-1.4 1.3l16.3 37c.6 0 1.3 0 1.8-.1zM129.9 184.5c.5.6 1.1 1.2 1.5 1.8 2.7 4.2 2.6 4.2 7.4.3-5.1-4.1-10-8.2-15.1-12-.9-.7-3.1-.6-4.2 0-2.6 1.5-4.9 3.6-7.8 5.9 3.4 1.9 6.3 3.7 9.2 5.4 4.7-4.8 5.5-4.9 9-1.4zM109.8 242.2zM136.9 210.8c-5.9 7.2-7.9 15.8-9.1 24.6-.7 4.9 2.3 9.2 5.4 10 4.1-13.1 8.1-26.2 12.2-39.4-3.1-.1-5.4 1.1-8.5 4.8z"/></svg>